<?xml version="1.0" encoding="UTF-8" standalone="no"?>
<!DOCTYPE svg PUBLIC "-//W3C//DTD SVG 1.1//EN"
 "http://www.w3.org/Graphics/SVG/1.1/DTD/svg11.dtd">
<!-- Generated by graphviz version 2.38.0 (20140413.2041)
 -->
<!-- Title: finder.h Pages: 1 -->
<svg width="191pt" height="140pt"
 viewBox="0.00 0.00 190.50 140.00" xmlns="http://www.w3.org/2000/svg" xmlns:xlink="http://www.w3.org/1999/xlink">
<g id="graph0" class="graph" transform="scale(1 1) rotate(0) translate(4 136)">
<title>finder.h</title>
<polygon fill="white" stroke="none" points="-4,4 -4,-136 186.5,-136 186.5,4 -4,4"/>
<!-- Node1 -->
<g id="node1" class="node"><title>Node1</title>
<polygon fill="#bfbfbf" stroke="black" points="67,-112.5 67,-131.5 116,-131.5 116,-112.5 67,-112.5"/>
<text text-anchor="middle" x="91.5" y="-119.5" font-family="Helvetica,sans-Serif" font-size="10.00">finder.h</text>
</g>
<!-- Node2 -->
<g id="node2" class="node"><title>Node2</title>
<g id="a_node2"><a xlink:href="finder_8c.html" target="_top" xlink:title="The finder retrives the list of files matching an expression. ">
<polygon fill="white" stroke="black" points="0,-56.5 0,-75.5 49,-75.5 49,-56.5 0,-56.5"/>
<text text-anchor="middle" x="24.5" y="-63.5" font-family="Helvetica,sans-Serif" font-size="10.00">finder.c</text>
</a>
</g>
</g>
<!-- Node1&#45;&gt;Node2 -->
<g id="edge1" class="edge"><title>Node1&#45;&gt;Node2</title>
<path fill="none" stroke="midnightblue" d="M72.6652,-105.82C60.6616,-96.1452 45.5283,-83.9481 35.4606,-75.8339"/>
<polygon fill="midnightblue" stroke="midnightblue" points="70.753,-108.774 80.7353,-112.324 75.1457,-103.324 70.753,-108.774"/>
</g>
<!-- Node3 -->
<g id="node3" class="node"><title>Node3</title>
<g id="a_node3"><a xlink:href="linker_8h.html" target="_top" xlink:title="The linker maintains an updated list of links to the found files. ">
<polygon fill="white" stroke="black" points="67.5,-56.5 67.5,-75.5 115.5,-75.5 115.5,-56.5 67.5,-56.5"/>
<text text-anchor="middle" x="91.5" y="-63.5" font-family="Helvetica,sans-Serif" font-size="10.00">linker.h</text>
</a>
</g>
</g>
<!-- Node1&#45;&gt;Node3 -->
<g id="edge2" class="edge"><title>Node1&#45;&gt;Node3</title>
<path fill="none" stroke="midnightblue" d="M91.5,-101.805C91.5,-92.9102 91.5,-82.7798 91.5,-75.7511"/>
<polygon fill="midnightblue" stroke="midnightblue" points="88.0001,-102.083 91.5,-112.083 95.0001,-102.083 88.0001,-102.083"/>
</g>
<!-- Node5 -->
<g id="node5" class="node"><title>Node5</title>
<g id="a_node5"><a xlink:href="searchfolder_8c_source.html" target="_top" xlink:title="searchfolder.c">
<polygon fill="white" stroke="black" points="104.5,-0.5 104.5,-19.5 182.5,-19.5 182.5,-0.5 104.5,-0.5"/>
<text text-anchor="middle" x="143.5" y="-7.5" font-family="Helvetica,sans-Serif" font-size="10.00">searchfolder.c</text>
</a>
</g>
</g>
<!-- Node1&#45;&gt;Node5 -->
<g id="edge5" class="edge"><title>Node1&#45;&gt;Node5</title>
<path fill="none" stroke="midnightblue" d="M105.845,-104.393C112.279,-96.2668 119.524,-86.0798 124.5,-76 133.868,-57.0238 139.455,-32.5979 141.947,-19.7675"/>
<polygon fill="midnightblue" stroke="midnightblue" points="102.987,-102.357 99.3265,-112.3 108.388,-106.81 102.987,-102.357"/>
</g>
<!-- Node4 -->
<g id="node4" class="node"><title>Node4</title>
<g id="a_node4"><a xlink:href="linker_8c.html" target="_top" xlink:title="The linker maintains an updated list of links to the found files. ">
<polygon fill="white" stroke="black" points="38.5,-0.5 38.5,-19.5 86.5,-19.5 86.5,-0.5 38.5,-0.5"/>
<text text-anchor="middle" x="62.5" y="-7.5" font-family="Helvetica,sans-Serif" font-size="10.00">linker.c</text>
</a>
</g>
</g>
<!-- Node3&#45;&gt;Node4 -->
<g id="edge3" class="edge"><title>Node3&#45;&gt;Node4</title>
<path fill="none" stroke="midnightblue" d="M81.8241,-46.9827C76.9016,-37.8168 71.1421,-27.0922 67.1997,-19.7511"/>
<polygon fill="midnightblue" stroke="midnightblue" points="78.8964,-48.929 86.7112,-56.083 85.0634,-45.6171 78.8964,-48.929"/>
</g>
<!-- Node3&#45;&gt;Node5 -->
<g id="edge4" class="edge"><title>Node3&#45;&gt;Node5</title>
<path fill="none" stroke="midnightblue" d="M107.179,-48.7175C116.345,-39.1997 127.553,-27.5608 135.073,-19.7511"/>
<polygon fill="midnightblue" stroke="midnightblue" points="104.502,-46.452 100.087,-56.083 109.544,-51.3075 104.502,-46.452"/>
</g>
</g>
</svg>
