<?xml version="1.0" encoding="UTF-8" standalone="no"?>
<!DOCTYPE svg PUBLIC "-//W3C//DTD SVG 1.1//EN"
 "http://www.w3.org/Graphics/SVG/1.1/DTD/svg11.dtd">
<!-- Generated by graphviz version 2.38.0 (20140413.2041)
 -->
<!-- Title: finder.h Pages: 1 -->
<svg width="229pt" height="196pt"
 viewBox="0.00 0.00 229.04 196.00" xmlns="http://www.w3.org/2000/svg" xmlns:xlink="http://www.w3.org/1999/xlink">
<g id="graph0" class="graph" transform="scale(1 1) rotate(0) translate(4 192)">
<title>finder.h</title>
<polygon fill="white" stroke="none" points="-4,4 -4,-192 225.038,-192 225.038,4 -4,4"/>
<!-- Node1 -->
<g id="node1" class="node"><title>Node1</title>
<polygon fill="#bfbfbf" stroke="black" points="11.5375,-168.5 11.5375,-187.5 60.5375,-187.5 60.5375,-168.5 11.5375,-168.5"/>
<text text-anchor="middle" x="36.0375" y="-175.5" font-family="Helvetica,sans-Serif" font-size="10.00">finder.h</text>
</g>
<!-- Node2 -->
<g id="node2" class="node"><title>Node2</title>
<polygon fill="white" stroke="#bfbfbf" points="68.0375,-0.5 68.0375,-19.5 116.038,-19.5 116.038,-0.5 68.0375,-0.5"/>
<text text-anchor="middle" x="92.0375" y="-7.5" font-family="Helvetica,sans-Serif" font-size="10.00">stdlib.h</text>
</g>
<!-- Node1&#45;&gt;Node2 -->
<g id="edge1" class="edge"><title>Node1&#45;&gt;Node2</title>
<path fill="none" stroke="midnightblue" d="M30.0428,-168.417C16.3336,-147.634 -14.4477,-93.5541 8.03751,-56 18.9156,-37.8318 39.9146,-26.5819 58.1946,-19.874"/>
<polygon fill="midnightblue" stroke="midnightblue" points="59.3435,-23.1804 67.7127,-16.6837 57.1188,-16.5433 59.3435,-23.1804"/>
</g>
<!-- Node3 -->
<g id="node3" class="node"><title>Node3</title>
<g id="a_node3"><a xlink:href="validator_8h.html" target="_top" xlink:title="Validates files against a parsed criteria expression. ">
<polygon fill="white" stroke="black" points="53.0375,-112.5 53.0375,-131.5 115.038,-131.5 115.038,-112.5 53.0375,-112.5"/>
<text text-anchor="middle" x="84.0375" y="-119.5" font-family="Helvetica,sans-Serif" font-size="10.00">validator.h</text>
</a>
</g>
</g>
<!-- Node1&#45;&gt;Node3 -->
<g id="edge2" class="edge"><title>Node1&#45;&gt;Node3</title>
<path fill="none" stroke="midnightblue" d="M43.9637,-168.083C50.8836,-160.298 61.1029,-148.801 69.4895,-139.367"/>
<polygon fill="midnightblue" stroke="midnightblue" points="72.231,-141.55 76.2588,-131.751 66.9992,-136.9 72.231,-141.55"/>
</g>
<!-- Node4 -->
<g id="node4" class="node"><title>Node4</title>
<polygon fill="white" stroke="#bfbfbf" points="17.0375,-56.5 17.0375,-75.5 73.0375,-75.5 73.0375,-56.5 17.0375,-56.5"/>
<text text-anchor="middle" x="45.0375" y="-63.5" font-family="Helvetica,sans-Serif" font-size="10.00">stdbool.h</text>
</g>
<!-- Node3&#45;&gt;Node4 -->
<g id="edge3" class="edge"><title>Node3&#45;&gt;Node4</title>
<path fill="none" stroke="midnightblue" d="M77.5975,-112.083C72.0887,-104.455 64.0063,-93.2645 57.2725,-83.9408"/>
<polygon fill="midnightblue" stroke="midnightblue" points="60.0501,-81.8087 51.3577,-75.7511 54.3753,-85.9071 60.0501,-81.8087"/>
</g>
<!-- Node5 -->
<g id="node5" class="node"><title>Node5</title>
<polygon fill="white" stroke="#bfbfbf" points="91.0375,-56.5 91.0375,-75.5 151.038,-75.5 151.038,-56.5 91.0375,-56.5"/>
<text text-anchor="middle" x="121.038" y="-63.5" font-family="Helvetica,sans-Serif" font-size="10.00">sys/stat.h</text>
</g>
<!-- Node3&#45;&gt;Node5 -->
<g id="edge4" class="edge"><title>Node3&#45;&gt;Node5</title>
<path fill="none" stroke="midnightblue" d="M90.1473,-112.083C95.3197,-104.534 102.884,-93.4948 109.232,-84.2298"/>
<polygon fill="midnightblue" stroke="midnightblue" points="112.276,-85.9787 115.041,-75.7511 106.502,-82.0221 112.276,-85.9787"/>
</g>
<!-- Node6 -->
<g id="node6" class="node"><title>Node6</title>
<g id="a_node6"><a xlink:href="parser_8h.html" target="_top" xlink:title="Parses a string expression and return a formal representation. ">
<polygon fill="white" stroke="black" points="169.038,-56.5 169.038,-75.5 221.038,-75.5 221.038,-56.5 169.038,-56.5"/>
<text text-anchor="middle" x="195.038" y="-63.5" font-family="Helvetica,sans-Serif" font-size="10.00">parser.h</text>
</a>
</g>
</g>
<!-- Node3&#45;&gt;Node6 -->
<g id="edge5" class="edge"><title>Node3&#45;&gt;Node6</title>
<path fill="none" stroke="midnightblue" d="M101.872,-112.324C119.753,-103.625 147.513,-90.1202 168.083,-80.113"/>
<polygon fill="midnightblue" stroke="midnightblue" points="169.786,-83.1765 177.248,-75.6545 166.724,-76.8819 169.786,-83.1765"/>
</g>
<!-- Node6&#45;&gt;Node2 -->
<g id="edge6" class="edge"><title>Node6&#45;&gt;Node2</title>
<path fill="none" stroke="midnightblue" d="M178.489,-56.324C162.046,-47.7034 136.603,-34.3643 117.569,-24.3855"/>
<polygon fill="midnightblue" stroke="midnightblue" points="119.027,-21.198 108.545,-19.6545 115.777,-27.3977 119.027,-21.198"/>
</g>
</g>
</svg>
