<?xml version="1.0" encoding="UTF-8" standalone="no"?>
<!DOCTYPE svg PUBLIC "-//W3C//DTD SVG 1.1//EN"
 "http://www.w3.org/Graphics/SVG/1.1/DTD/svg11.dtd">
<!-- Generated by graphviz version 2.38.0 (20140413.2041)
 -->
<!-- Title: finder.c Pages: 1 -->
<!--zoomable 252 -->
<svg id="main" version="1.1" xmlns="http://www.w3.org/2000/svg" xmlns:xlink="http://www.w3.org/1999/xlink" xml:space="preserve" onload="init(evt)">
<style type="text/css"><![CDATA[
.edge:hover path { stroke: red; }
.edge:hover polygon { stroke: red; fill: red; }
]]></style>
<script type="text/javascript"><![CDATA[
var edges = document.getElementsByTagName('g');
if (edges && edges.length) {
  for (var i=0;i<edges.length;i++) {
    if (edges[i].id.substr(0,4)=='edge') {
      edges[i].setAttribute('class','edge');
    }
  }
}
]]></script>
        <defs>
                <circle id="rim" cx="0" cy="0" r="7"/>
                <circle id="rim2" cx="0" cy="0" r="3.5"/>
                <g id="zoomPlus">
                        <use xlink:href="#rim" fill="#404040">
                                <set attributeName="fill" to="#808080" begin="zoomplus.mouseover" end="zoomplus.mouseout"/>
                        </use>
                        <path d="M-4,0h8M0,-4v8" fill="none" stroke="white" stroke-width="1.5" pointer-events="none"/>
                </g>
                <g id="zoomMin">
                        <use xlink:href="#rim" fill="#404040">
                                <set attributeName="fill" to="#808080" begin="zoomminus.mouseover" end="zoomminus.mouseout"/>
                        </use>
                        <path d="M-4,0h8" fill="none" stroke="white" stroke-width="1.5" pointer-events="none"/>
                </g>
                <g id="dirArrow">
                        <path fill="none" stroke="white" stroke-width="1.5" d="M0,-3.0v7 M-2.5,-0.5L0,-3.0L2.5,-0.5"/>
                </g>
               <g id="resetDef">
                       <use xlink:href="#rim2" fill="#404040">
                               <set attributeName="fill" to="#808080" begin="reset.mouseover" end="reset.mouseout"/>
                       </use>
               </g>
        </defs>

<script type="text/javascript">
var viewWidth = 625;
var viewHeight = 252;
var sectionId = 'dynsection-0';
</script>
<script xlink:href="svgpan.js"/>
<svg id="graph" class="graph">
<g id="viewport">
<title>finder.c</title>
<polygon fill="white" stroke="none" points="-4,4 -4,-248 620.5,-248 620.5,4 -4,4"/>
<!-- Node1 -->
<g id="node1" class="node"><title>Node1</title>
<polygon fill="#bfbfbf" stroke="black" points="250,-224.5 250,-243.5 299,-243.5 299,-224.5 250,-224.5"/>
<text text-anchor="middle" x="274.5" y="-231.5" font-family="Helvetica,sans-Serif" font-size="10.00">finder.c</text>
</g>
<!-- Node2 -->
<g id="node2" class="node"><title>Node2</title>
<polygon fill="white" stroke="#bfbfbf" points="0,-168.5 0,-187.5 49,-187.5 49,-168.5 0,-168.5"/>
<text text-anchor="middle" x="24.5" y="-175.5" font-family="Helvetica,sans-Serif" font-size="10.00">dirent.h</text>
</g>
<!-- Node1&#45;&gt;Node2 -->
<g id="edge1" class="edge"><title>Node1&#45;&gt;Node2</title>
<path fill="none" stroke="midnightblue" d="M249.786,-228.297C211.285,-220.875 134.442,-205.679 59.4325,-188.119"/>
<polygon fill="midnightblue" stroke="midnightblue" points="59.8803,-184.629 49.3439,-185.74 58.2736,-191.442 59.8803,-184.629"/>
</g>
<!-- Node3 -->
<g id="node3" class="node"><title>Node3</title>
<polygon fill="white" stroke="#bfbfbf" points="67,-168.5 67,-187.5 116,-187.5 116,-168.5 67,-168.5"/>
<text text-anchor="middle" x="91.5" y="-175.5" font-family="Helvetica,sans-Serif" font-size="10.00">string.h</text>
</g>
<!-- Node1&#45;&gt;Node3 -->
<g id="edge2" class="edge"><title>Node1&#45;&gt;Node3</title>
<path fill="none" stroke="midnightblue" d="M249.82,-225.717C217.805,-216.27 161.795,-199.743 125.697,-189.091"/>
<polygon fill="midnightblue" stroke="midnightblue" points="126.662,-185.727 116.081,-186.253 124.681,-192.44 126.662,-185.727"/>
</g>
<!-- Node4 -->
<g id="node4" class="node"><title>Node4</title>
<polygon fill="white" stroke="#bfbfbf" points="179.5,-56.5 179.5,-75.5 239.5,-75.5 239.5,-56.5 179.5,-56.5"/>
<text text-anchor="middle" x="209.5" y="-63.5" font-family="Helvetica,sans-Serif" font-size="10.00">sys/stat.h</text>
</g>
<!-- Node1&#45;&gt;Node4 -->
<g id="edge3" class="edge"><title>Node1&#45;&gt;Node4</title>
<path fill="none" stroke="midnightblue" d="M270.444,-224.471C262.319,-207.226 243.697,-166.884 230.5,-132 224.599,-116.402 218.844,-98.3269 214.856,-85.2027"/>
<polygon fill="midnightblue" stroke="midnightblue" points="218.175,-84.0841 211.956,-75.5059 211.468,-86.0895 218.175,-84.0841"/>
</g>
<!-- Node5 -->
<g id="node5" class="node"><title>Node5</title>
<polygon fill="white" stroke="#bfbfbf" points="322,-168.5 322,-187.5 373,-187.5 373,-168.5 322,-168.5"/>
<text text-anchor="middle" x="347.5" y="-175.5" font-family="Helvetica,sans-Serif" font-size="10.00">unistd.h</text>
</g>
<!-- Node1&#45;&gt;Node5 -->
<g id="edge4" class="edge"><title>Node1&#45;&gt;Node5</title>
<path fill="none" stroke="midnightblue" d="M286.229,-224.324C297.337,-216.107 314.242,-203.602 327.483,-193.807"/>
<polygon fill="midnightblue" stroke="midnightblue" points="329.6,-196.595 335.558,-187.834 325.437,-190.967 329.6,-196.595"/>
</g>
<!-- Node6 -->
<g id="node6" class="node"><title>Node6</title>
<g id="a_node6"><a xlink:href="finder_8h.html" target="_top" xlink:title="The finder retrives the list of files matching an expression. ">
<polygon fill="white" stroke="black" points="134,-168.5 134,-187.5 183,-187.5 183,-168.5 134,-168.5"/>
<text text-anchor="middle" x="158.5" y="-175.5" font-family="Helvetica,sans-Serif" font-size="10.00">finder.h</text>
</a>
</g>
</g>
<!-- Node1&#45;&gt;Node6 -->
<g id="edge5" class="edge"><title>Node1&#45;&gt;Node6</title>
<path fill="none" stroke="midnightblue" d="M256.119,-224.444C237.284,-215.675 207.769,-201.935 186.121,-191.858"/>
<polygon fill="midnightblue" stroke="midnightblue" points="187.338,-188.564 176.795,-187.516 184.383,-194.91 187.338,-188.564"/>
</g>
<!-- Node7 -->
<g id="node7" class="node"><title>Node7</title>
<polygon fill="white" stroke="#bfbfbf" points="140.5,-0.5 140.5,-19.5 188.5,-19.5 188.5,-0.5 140.5,-0.5"/>
<text text-anchor="middle" x="164.5" y="-7.5" font-family="Helvetica,sans-Serif" font-size="10.00">stdlib.h</text>
</g>
<!-- Node1&#45;&gt;Node7 -->
<g id="edge19" class="edge"><title>Node1&#45;&gt;Node7</title>
<path fill="none" stroke="midnightblue" d="M277.305,-224.314C285.818,-196.118 308.254,-106.077 265.5,-56 248.422,-35.9968 220.692,-24.5151 198.605,-18.1633"/>
<polygon fill="midnightblue" stroke="midnightblue" points="199.476,-14.7732 188.913,-15.5937 197.682,-21.5395 199.476,-14.7732"/>
</g>
<!-- Node11 -->
<g id="node11" class="node"><title>Node11</title>
<g id="a_node11"><a xlink:href="io_8h.html" target="_top" xlink:title="Helpers function around system calls for IO purpose. ">
<polygon fill="white" stroke="black" points="239.5,-112.5 239.5,-131.5 271.5,-131.5 271.5,-112.5 239.5,-112.5"/>
<text text-anchor="middle" x="255.5" y="-119.5" font-family="Helvetica,sans-Serif" font-size="10.00">io.h</text>
</a>
</g>
</g>
<!-- Node1&#45;&gt;Node11 -->
<g id="edge12" class="edge"><title>Node1&#45;&gt;Node11</title>
<path fill="none" stroke="midnightblue" d="M273.009,-224.368C269.943,-206.617 262.87,-165.666 258.712,-141.597"/>
<polygon fill="midnightblue" stroke="midnightblue" points="262.135,-140.85 256.984,-131.591 255.237,-142.041 262.135,-140.85"/>
</g>
<!-- Node12 -->
<g id="node12" class="node"><title>Node12</title>
<g id="a_node12"><a xlink:href="logger_8h.html" target="_top" xlink:title="Simple logger functions that allow logging of various informations and errors. ">
<polygon fill="white" stroke="black" points="391,-168.5 391,-187.5 442,-187.5 442,-168.5 391,-168.5"/>
<text text-anchor="middle" x="416.5" y="-175.5" font-family="Helvetica,sans-Serif" font-size="10.00">logger.h</text>
</a>
</g>
</g>
<!-- Node1&#45;&gt;Node12 -->
<g id="edge16" class="edge"><title>Node1&#45;&gt;Node12</title>
<path fill="none" stroke="midnightblue" d="M297,-224.444C320.577,-215.478 357.822,-201.314 384.464,-191.183"/>
<polygon fill="midnightblue" stroke="midnightblue" points="386.002,-194.342 394.105,-187.516 383.514,-187.8 386.002,-194.342"/>
</g>
<!-- Node13 -->
<g id="node13" class="node"><title>Node13</title>
<polygon fill="white" stroke="#bfbfbf" points="460.5,-168.5 460.5,-187.5 546.5,-187.5 546.5,-168.5 460.5,-168.5"/>
<text text-anchor="middle" x="503.5" y="-175.5" font-family="Helvetica,sans-Serif" font-size="10.00">vendor/uthash.h</text>
</g>
<!-- Node1&#45;&gt;Node13 -->
<g id="edge17" class="edge"><title>Node1&#45;&gt;Node13</title>
<path fill="none" stroke="midnightblue" d="M299.007,-227.221C336.709,-218.331 409.578,-201.148 457.371,-189.878"/>
<polygon fill="midnightblue" stroke="midnightblue" points="458.237,-193.269 467.167,-187.568 456.63,-186.456 458.237,-193.269"/>
</g>
<!-- Node14 -->
<g id="node14" class="node"><title>Node14</title>
<polygon fill="white" stroke="#bfbfbf" points="564.5,-168.5 564.5,-187.5 616.5,-187.5 616.5,-168.5 564.5,-168.5"/>
<text text-anchor="middle" x="590.5" y="-175.5" font-family="Helvetica,sans-Serif" font-size="10.00">stddef.h</text>
</g>
<!-- Node1&#45;&gt;Node14 -->
<g id="edge18" class="edge"><title>Node1&#45;&gt;Node14</title>
<path fill="none" stroke="midnightblue" d="M299.071,-229.847C346.513,-223.594 454.184,-208.593 554.222,-188.11"/>
<polygon fill="midnightblue" stroke="midnightblue" points="555.106,-191.501 564.188,-186.045 553.686,-184.647 555.106,-191.501"/>
</g>
<!-- Node6&#45;&gt;Node7 -->
<g id="edge6" class="edge"><title>Node6&#45;&gt;Node7</title>
<path fill="none" stroke="midnightblue" d="M134.608,-168.441C87.5924,-150.272 -9.38052,-105.44 26.5,-56 50.0732,-23.5182 97.7268,-14.0351 130.375,-11.5063"/>
<polygon fill="midnightblue" stroke="midnightblue" points="130.624,-14.9978 140.398,-10.9093 130.208,-8.01014 130.624,-14.9978"/>
</g>
<!-- Node8 -->
<g id="node8" class="node"><title>Node8</title>
<g id="a_node8"><a xlink:href="validator_8h.html" target="_top" xlink:title="Validates files against a parsed criteria expression. ">
<polygon fill="white" stroke="black" points="110.5,-112.5 110.5,-131.5 172.5,-131.5 172.5,-112.5 110.5,-112.5"/>
<text text-anchor="middle" x="141.5" y="-119.5" font-family="Helvetica,sans-Serif" font-size="10.00">validator.h</text>
</a>
</g>
</g>
<!-- Node6&#45;&gt;Node8 -->
<g id="edge7" class="edge"><title>Node6&#45;&gt;Node8</title>
<path fill="none" stroke="midnightblue" d="M155.693,-168.083C153.415,-160.849 150.129,-150.409 147.292,-141.397"/>
<polygon fill="midnightblue" stroke="midnightblue" points="150.596,-140.239 144.255,-131.751 143.919,-142.341 150.596,-140.239"/>
</g>
<!-- Node8&#45;&gt;Node4 -->
<g id="edge9" class="edge"><title>Node8&#45;&gt;Node4</title>
<path fill="none" stroke="midnightblue" d="M152.425,-112.324C162.675,-104.185 178.221,-91.8395 190.501,-82.0874"/>
<polygon fill="midnightblue" stroke="midnightblue" points="192.721,-84.7937 198.376,-75.8339 188.368,-79.3119 192.721,-84.7937"/>
</g>
<!-- Node9 -->
<g id="node9" class="node"><title>Node9</title>
<polygon fill="white" stroke="#bfbfbf" points="105.5,-56.5 105.5,-75.5 161.5,-75.5 161.5,-56.5 105.5,-56.5"/>
<text text-anchor="middle" x="133.5" y="-63.5" font-family="Helvetica,sans-Serif" font-size="10.00">stdbool.h</text>
</g>
<!-- Node8&#45;&gt;Node9 -->
<g id="edge8" class="edge"><title>Node8&#45;&gt;Node9</title>
<path fill="none" stroke="midnightblue" d="M140.179,-112.083C139.119,-104.927 137.594,-94.6353 136.269,-85.6911"/>
<polygon fill="midnightblue" stroke="midnightblue" points="139.724,-85.1302 134.796,-75.7511 132.8,-86.1561 139.724,-85.1302"/>
</g>
<!-- Node10 -->
<g id="node10" class="node"><title>Node10</title>
<g id="a_node10"><a xlink:href="parser_8h.html" target="_top" xlink:title="Parses a string expression and return a formal representation. ">
<polygon fill="white" stroke="black" points="35.5,-56.5 35.5,-75.5 87.5,-75.5 87.5,-56.5 35.5,-56.5"/>
<text text-anchor="middle" x="61.5" y="-63.5" font-family="Helvetica,sans-Serif" font-size="10.00">parser.h</text>
</a>
</g>
</g>
<!-- Node8&#45;&gt;Node10 -->
<g id="edge10" class="edge"><title>Node8&#45;&gt;Node10</title>
<path fill="none" stroke="midnightblue" d="M128.647,-112.324C116.284,-103.979 97.3699,-91.2122 82.7628,-81.3524"/>
<polygon fill="midnightblue" stroke="midnightblue" points="84.5682,-78.3483 74.3215,-75.6545 80.6518,-84.1503 84.5682,-78.3483"/>
</g>
<!-- Node10&#45;&gt;Node7 -->
<g id="edge11" class="edge"><title>Node10&#45;&gt;Node7</title>
<path fill="none" stroke="midnightblue" d="M78.0487,-56.324C94.4916,-47.7034 119.935,-34.3643 138.968,-24.3855"/>
<polygon fill="midnightblue" stroke="midnightblue" points="140.761,-27.3977 147.992,-19.6545 137.511,-21.198 140.761,-27.3977"/>
</g>
<!-- Node11&#45;&gt;Node4 -->
<g id="edge15" class="edge"><title>Node11&#45;&gt;Node4</title>
<path fill="none" stroke="midnightblue" d="M247.904,-112.083C241.273,-104.298 231.479,-92.8015 223.442,-83.3665"/>
<polygon fill="midnightblue" stroke="midnightblue" points="226.104,-81.0939 216.955,-75.7511 220.775,-85.6332 226.104,-81.0939"/>
</g>
<!-- Node11&#45;&gt;Node7 -->
<g id="edge13" class="edge"><title>Node11&#45;&gt;Node7</title>
<path fill="none" stroke="midnightblue" d="M256.978,-112.14C258.713,-98.7556 260.046,-73.1286 248.5,-56 236.796,-38.6378 216.134,-27.4441 198.231,-20.5632"/>
<polygon fill="midnightblue" stroke="midnightblue" points="199.239,-17.2071 188.644,-17.1725 196.905,-23.8065 199.239,-17.2071"/>
</g>
<!-- Node11&#45;&gt;Node9 -->
<g id="edge14" class="edge"><title>Node11&#45;&gt;Node9</title>
<path fill="none" stroke="midnightblue" d="M239.299,-113.829C219.702,-105.155 186.357,-90.3957 162.334,-79.7626"/>
<polygon fill="midnightblue" stroke="midnightblue" points="163.557,-76.4763 152.996,-75.6293 160.723,-82.8773 163.557,-76.4763"/>
</g>
</g>
</svg>
        <g id="navigator" transform="translate(0 0)" fill="#404254">
                <rect fill="#f2f5e9" fill-opacity="0.5" stroke="#606060" stroke-width=".5" x="0" y="0" width="60" height="60"/>
                <use id="zoomplus" xlink:href="#zoomPlus" x="17" y="9" onmousedown="handleZoom(evt,'in')"/>
                <use id="zoomminus" xlink:href="#zoomMin" x="42" y="9" onmousedown="handleZoom(evt,'out')"/>
                <use id="reset" xlink:href="#resetDef" x="30" y="36" onmousedown="handleReset()"/>
                <g id="arrowUp" xlink:href="#dirArrow" transform="translate(30 24)" onmousedown="handlePan(0,-1)">
                  <use xlink:href="#rim" fill="#404040">
                        <set attributeName="fill" to="#808080" begin="arrowUp.mouseover" end="arrowUp.mouseout"/>
                  </use>
                  <path fill="none" stroke="white" stroke-width="1.5" d="M0,-3.0v7 M-2.5,-0.5L0,-3.0L2.5,-0.5"/>
                </g>
                <g id="arrowRight" xlink:href="#dirArrow" transform="rotate(90) translate(36 -43)" onmousedown="handlePan(1,0)">
                  <use xlink:href="#rim" fill="#404040">
                        <set attributeName="fill" to="#808080" begin="arrowRight.mouseover" end="arrowRight.mouseout"/>
                  </use>
                  <path fill="none" stroke="white" stroke-width="1.5" d="M0,-3.0v7 M-2.5,-0.5L0,-3.0L2.5,-0.5"/>
                </g>
                <g id="arrowDown" xlink:href="#dirArrow" transform="rotate(180) translate(-30 -48)" onmousedown="handlePan(0,1)">
                  <use xlink:href="#rim" fill="#404040">
                        <set attributeName="fill" to="#808080" begin="arrowDown.mouseover" end="arrowDown.mouseout"/>
                  </use>
                  <path fill="none" stroke="white" stroke-width="1.5" d="M0,-3.0v7 M-2.5,-0.5L0,-3.0L2.5,-0.5"/>
                </g>
                <g id="arrowLeft" xlink:href="#dirArrow" transform="rotate(270) translate(-36 17)" onmousedown="handlePan(-1,0)">
                  <use xlink:href="#rim" fill="#404040">
                        <set attributeName="fill" to="#808080" begin="arrowLeft.mouseover" end="arrowLeft.mouseout"/>
                  </use>
                  <path fill="none" stroke="white" stroke-width="1.5" d="M0,-3.0v7 M-2.5,-0.5L0,-3.0L2.5,-0.5"/>
                </g>
        </g>
        <svg viewBox="0 0 15 15" width="100%" height="30px" preserveAspectRatio="xMaxYMin meet">
         <g id="arrow_out" transform="scale(0.3 0.3)">
          <a xlink:href="finder_8c__incl_org.svg" target="_base">
           <rect id="button" ry="5" rx="5" y="6" x="6" height="38" width="38"
                fill="#f2f5e9" fill-opacity="0.5" stroke="#606060" stroke-width="1.0"/>
           <path id="arrow"
             d="M 11.500037,31.436501 C 11.940474,20.09759 22.043105,11.32322 32.158766,21.979434 L 37.068811,17.246167 C 37.068811,17.246167 37.088388,32 37.088388,32 L 22.160133,31.978069 C 22.160133,31.978069 26.997745,27.140456 26.997745,27.140456 C 18.528582,18.264221 13.291696,25.230495 11.500037,31.436501 z"
             style="fill:#404040;"/>
          </a>
         </g>
        </svg>
</svg>
