<?xml version="1.0" encoding="UTF-8" standalone="no"?>
<!DOCTYPE svg PUBLIC "-//W3C//DTD SVG 1.1//EN"
 "http://www.w3.org/Graphics/SVG/1.1/DTD/svg11.dtd">
<!-- Generated by graphviz version 2.38.0 (20140413.2041)
 -->
<!-- Title: io.h Pages: 1 -->
<svg width="460pt" height="84pt"
 viewBox="0.00 0.00 459.50 84.00" xmlns="http://www.w3.org/2000/svg" xmlns:xlink="http://www.w3.org/1999/xlink">
<g id="graph0" class="graph" transform="scale(1 1) rotate(0) translate(4 80)">
<title>io.h</title>
<polygon fill="white" stroke="none" points="-4,4 -4,-80 455.5,-80 455.5,4 -4,4"/>
<!-- Node1 -->
<g id="node1" class="node"><title>Node1</title>
<polygon fill="#bfbfbf" stroke="black" points="181.5,-56.5 181.5,-75.5 213.5,-75.5 213.5,-56.5 181.5,-56.5"/>
<text text-anchor="middle" x="197.5" y="-63.5" font-family="Helvetica,sans-Serif" font-size="10.00">io.h</text>
</g>
<!-- Node2 -->
<g id="node2" class="node"><title>Node2</title>
<g id="a_node2"><a xlink:href="finder_8c.html" target="_top" xlink:title="The finder retrives the list of files matching an expression. ">
<polygon fill="white" stroke="black" points="0,-0.5 0,-19.5 49,-19.5 49,-0.5 0,-0.5"/>
<text text-anchor="middle" x="24.5" y="-7.5" font-family="Helvetica,sans-Serif" font-size="10.00">finder.c</text>
</a>
</g>
</g>
<!-- Node1&#45;&gt;Node2 -->
<g id="edge1" class="edge"><title>Node1&#45;&gt;Node2</title>
<path fill="none" stroke="midnightblue" d="M171.355,-56.8391C138.221,-46.4966 81.5315,-28.8017 49.1331,-18.6889"/>
<polygon fill="midnightblue" stroke="midnightblue" points="170.636,-60.2812 181.225,-59.9198 172.722,-53.5991 170.636,-60.2812"/>
</g>
<!-- Node3 -->
<g id="node3" class="node"><title>Node3</title>
<g id="a_node3"><a xlink:href="io_8c.html" target="_top" xlink:title="Helpers function around system calls for IO purpose. ">
<polygon fill="white" stroke="black" points="67.5,-0.5 67.5,-19.5 99.5,-19.5 99.5,-0.5 67.5,-0.5"/>
<text text-anchor="middle" x="83.5" y="-7.5" font-family="Helvetica,sans-Serif" font-size="10.00">io.c</text>
</a>
</g>
</g>
<!-- Node1&#45;&gt;Node3 -->
<g id="edge2" class="edge"><title>Node1&#45;&gt;Node3</title>
<path fill="none" stroke="midnightblue" d="M172.04,-52.9401C149.961,-42.4816 118.668,-27.6584 99.8031,-18.7225"/>
<polygon fill="midnightblue" stroke="midnightblue" points="170.631,-56.1453 181.167,-57.2631 173.628,-49.8191 170.631,-56.1453"/>
</g>
<!-- Node4 -->
<g id="node4" class="node"><title>Node4</title>
<g id="a_node4"><a xlink:href="ipc_8c.html" target="_top" xlink:title="Manage communication between different instance of smartfolder. ">
<polygon fill="white" stroke="black" points="117.5,-0.5 117.5,-19.5 155.5,-19.5 155.5,-0.5 117.5,-0.5"/>
<text text-anchor="middle" x="136.5" y="-7.5" font-family="Helvetica,sans-Serif" font-size="10.00">ipc.c</text>
</a>
</g>
</g>
<!-- Node1&#45;&gt;Node4 -->
<g id="edge3" class="edge"><title>Node1&#45;&gt;Node4</title>
<path fill="none" stroke="midnightblue" d="M180.033,-49.5372C169.156,-39.9087 155.556,-27.8694 146.479,-19.8339"/>
<polygon fill="midnightblue" stroke="midnightblue" points="177.892,-52.3162 187.699,-56.324 182.532,-47.0749 177.892,-52.3162"/>
</g>
<!-- Node5 -->
<g id="node5" class="node"><title>Node5</title>
<g id="a_node5"><a xlink:href="linker_8c.html" target="_top" xlink:title="The linker maintains an updated list of links to the found files. ">
<polygon fill="white" stroke="black" points="173.5,-0.5 173.5,-19.5 221.5,-19.5 221.5,-0.5 173.5,-0.5"/>
<text text-anchor="middle" x="197.5" y="-7.5" font-family="Helvetica,sans-Serif" font-size="10.00">linker.c</text>
</a>
</g>
</g>
<!-- Node1&#45;&gt;Node5 -->
<g id="edge4" class="edge"><title>Node1&#45;&gt;Node5</title>
<path fill="none" stroke="midnightblue" d="M197.5,-45.8045C197.5,-36.9102 197.5,-26.7798 197.5,-19.7511"/>
<polygon fill="midnightblue" stroke="midnightblue" points="194,-46.083 197.5,-56.083 201,-46.083 194,-46.083"/>
</g>
<!-- Node6 -->
<g id="node6" class="node"><title>Node6</title>
<g id="a_node6"><a xlink:href="logger_8c.html" target="_top" xlink:title="Simple logger functions that allow logging of various informations and errors. ">
<polygon fill="white" stroke="black" points="240,-0.5 240,-19.5 291,-19.5 291,-0.5 240,-0.5"/>
<text text-anchor="middle" x="265.5" y="-7.5" font-family="Helvetica,sans-Serif" font-size="10.00">logger.c</text>
</a>
</g>
</g>
<!-- Node1&#45;&gt;Node6 -->
<g id="edge5" class="edge"><title>Node1&#45;&gt;Node6</title>
<path fill="none" stroke="midnightblue" d="M216.262,-50.1008C228.5,-40.3824 244.059,-28.0269 254.376,-19.8339"/>
<polygon fill="midnightblue" stroke="midnightblue" points="214.08,-47.3642 208.425,-56.324 218.433,-52.846 214.08,-47.3642"/>
</g>
<!-- Node7 -->
<g id="node7" class="node"><title>Node7</title>
<g id="a_node7"><a xlink:href="main_8c.html" target="_top" xlink:title="Main program: deamonise, parse argument and launch the search. ">
<polygon fill="white" stroke="black" points="309.5,-0.5 309.5,-19.5 355.5,-19.5 355.5,-0.5 309.5,-0.5"/>
<text text-anchor="middle" x="332.5" y="-7.5" font-family="Helvetica,sans-Serif" font-size="10.00">main.c</text>
</a>
</g>
</g>
<!-- Node1&#45;&gt;Node7 -->
<g id="edge6" class="edge"><title>Node1&#45;&gt;Node7</title>
<path fill="none" stroke="midnightblue" d="M222.899,-54.8405C248.395,-44.6418 287.233,-29.1067 311.179,-19.5285"/>
<polygon fill="midnightblue" stroke="midnightblue" points="221.501,-51.6298 213.516,-58.5934 224.101,-58.1291 221.501,-51.6298"/>
</g>
<!-- Node8 -->
<g id="node8" class="node"><title>Node8</title>
<g id="a_node8"><a xlink:href="searchfolder_8c_source.html" target="_top" xlink:title="searchfolder.c">
<polygon fill="white" stroke="black" points="373.5,-0.5 373.5,-19.5 451.5,-19.5 451.5,-0.5 373.5,-0.5"/>
<text text-anchor="middle" x="412.5" y="-7.5" font-family="Helvetica,sans-Serif" font-size="10.00">searchfolder.c</text>
</a>
</g>
</g>
<!-- Node1&#45;&gt;Node8 -->
<g id="edge7" class="edge"><title>Node1&#45;&gt;Node8</title>
<path fill="none" stroke="midnightblue" d="M223.66,-58.4297C262.51,-48.6719 335.481,-30.3444 378.449,-19.5523"/>
<polygon fill="midnightblue" stroke="midnightblue" points="222.506,-55.1106 213.66,-60.9412 224.211,-61.8997 222.506,-55.1106"/>
</g>
</g>
</svg>
