<?xml version="1.0" encoding="UTF-8" standalone="no"?>
<!DOCTYPE svg PUBLIC "-//W3C//DTD SVG 1.1//EN"
 "http://www.w3.org/Graphics/SVG/1.1/DTD/svg11.dtd">
<!-- Generated by graphviz version 2.38.0 (20140413.2041)
 -->
<!-- Title: io.c Pages: 1 -->
<svg width="479pt" height="140pt"
 viewBox="0.00 0.00 478.50 140.00" xmlns="http://www.w3.org/2000/svg" xmlns:xlink="http://www.w3.org/1999/xlink">
<g id="graph0" class="graph" transform="scale(1 1) rotate(0) translate(4 136)">
<title>io.c</title>
<polygon fill="white" stroke="none" points="-4,4 -4,-136 474.5,-136 474.5,4 -4,4"/>
<!-- Node1 -->
<g id="node1" class="node"><title>Node1</title>
<polygon fill="#bfbfbf" stroke="black" points="212,-112.5 212,-131.5 244,-131.5 244,-112.5 212,-112.5"/>
<text text-anchor="middle" x="228" y="-119.5" font-family="Helvetica,sans-Serif" font-size="10.00">io.c</text>
</g>
<!-- Node2 -->
<g id="node2" class="node"><title>Node2</title>
<polygon fill="white" stroke="#bfbfbf" points="0,-56.5 0,-75.5 46,-75.5 46,-56.5 0,-56.5"/>
<text text-anchor="middle" x="23" y="-63.5" font-family="Helvetica,sans-Serif" font-size="10.00">stdio.h</text>
</g>
<!-- Node1&#45;&gt;Node2 -->
<g id="edge1" class="edge"><title>Node1&#45;&gt;Node2</title>
<path fill="none" stroke="midnightblue" d="M211.914,-116.763C178.376,-107.928 100.403,-87.3891 55.8225,-75.6459"/>
<polygon fill="midnightblue" stroke="midnightblue" points="56.6111,-72.2343 46.0494,-73.0715 54.828,-79.0034 56.6111,-72.2343"/>
</g>
<!-- Node3 -->
<g id="node3" class="node"><title>Node3</title>
<polygon fill="white" stroke="#bfbfbf" points="151,-0.5 151,-19.5 199,-19.5 199,-0.5 151,-0.5"/>
<text text-anchor="middle" x="175" y="-7.5" font-family="Helvetica,sans-Serif" font-size="10.00">stdlib.h</text>
</g>
<!-- Node1&#45;&gt;Node3 -->
<g id="edge2" class="edge"><title>Node1&#45;&gt;Node3</title>
<path fill="none" stroke="midnightblue" d="M211.646,-121.174C182.159,-120.489 120.591,-114.28 93,-76 76.1563,-52.6306 111.643,-33.2725 141.092,-21.923"/>
<polygon fill="midnightblue" stroke="midnightblue" points="142.573,-25.108 150.763,-18.3868 140.17,-18.5337 142.573,-25.108"/>
</g>
<!-- Node4 -->
<g id="node4" class="node"><title>Node4</title>
<polygon fill="white" stroke="#bfbfbf" points="102.5,-56.5 102.5,-75.5 151.5,-75.5 151.5,-56.5 102.5,-56.5"/>
<text text-anchor="middle" x="127" y="-63.5" font-family="Helvetica,sans-Serif" font-size="10.00">string.h</text>
</g>
<!-- Node1&#45;&gt;Node4 -->
<g id="edge3" class="edge"><title>Node1&#45;&gt;Node4</title>
<path fill="none" stroke="midnightblue" d="M211.773,-112.324C195.649,-103.703 170.7,-90.3643 152.036,-80.3855"/>
<polygon fill="midnightblue" stroke="midnightblue" points="153.656,-77.283 143.187,-75.6545 150.356,-83.456 153.656,-77.283"/>
</g>
<!-- Node5 -->
<g id="node5" class="node"><title>Node5</title>
<polygon fill="white" stroke="#bfbfbf" points="169.5,-56.5 169.5,-75.5 220.5,-75.5 220.5,-56.5 169.5,-56.5"/>
<text text-anchor="middle" x="195" y="-63.5" font-family="Helvetica,sans-Serif" font-size="10.00">unistd.h</text>
</g>
<!-- Node1&#45;&gt;Node5 -->
<g id="edge4" class="edge"><title>Node1&#45;&gt;Node5</title>
<path fill="none" stroke="midnightblue" d="M222.551,-112.083C217.986,-104.613 211.332,-93.7244 205.707,-84.5199"/>
<polygon fill="midnightblue" stroke="midnightblue" points="208.549,-82.4588 200.348,-75.7511 202.576,-86.109 208.549,-82.4588"/>
</g>
<!-- Node6 -->
<g id="node6" class="node"><title>Node6</title>
<polygon fill="white" stroke="#bfbfbf" points="239,-56.5 239,-75.5 283,-75.5 283,-56.5 239,-56.5"/>
<text text-anchor="middle" x="261" y="-63.5" font-family="Helvetica,sans-Serif" font-size="10.00">fcntl.h</text>
</g>
<!-- Node1&#45;&gt;Node6 -->
<g id="edge5" class="edge"><title>Node1&#45;&gt;Node6</title>
<path fill="none" stroke="midnightblue" d="M233.449,-112.083C238.014,-104.613 244.668,-93.7244 250.293,-84.5199"/>
<polygon fill="midnightblue" stroke="midnightblue" points="253.424,-86.109 255.652,-75.7511 247.451,-82.4588 253.424,-86.109"/>
</g>
<!-- Node7 -->
<g id="node7" class="node"><title>Node7</title>
<polygon fill="white" stroke="#bfbfbf" points="301.5,-56.5 301.5,-75.5 350.5,-75.5 350.5,-56.5 301.5,-56.5"/>
<text text-anchor="middle" x="326" y="-63.5" font-family="Helvetica,sans-Serif" font-size="10.00">dirent.h</text>
</g>
<!-- Node1&#45;&gt;Node7 -->
<g id="edge6" class="edge"><title>Node1&#45;&gt;Node7</title>
<path fill="none" stroke="midnightblue" d="M243.745,-112.324C259.319,-103.743 283.377,-90.486 301.459,-80.5224"/>
<polygon fill="midnightblue" stroke="midnightblue" points="303.224,-83.546 310.294,-75.6545 299.846,-77.4152 303.224,-83.546"/>
</g>
<!-- Node8 -->
<g id="node8" class="node"><title>Node8</title>
<g id="a_node8"><a xlink:href="io_8h.html" target="_top" xlink:title="Helpers function around system calls for IO purpose. ">
<polygon fill="white" stroke="black" points="369,-56.5 369,-75.5 401,-75.5 401,-56.5 369,-56.5"/>
<text text-anchor="middle" x="385" y="-63.5" font-family="Helvetica,sans-Serif" font-size="10.00">io.h</text>
</a>
</g>
</g>
<!-- Node1&#45;&gt;Node8 -->
<g id="edge7" class="edge"><title>Node1&#45;&gt;Node8</title>
<path fill="none" stroke="midnightblue" d="M244.138,-115.47C268.868,-106.993 317.624,-90.2676 359,-76 359.099,-75.9659 359.198,-75.9318 359.297,-75.8976"/>
<polygon fill="midnightblue" stroke="midnightblue" points="360.466,-79.1968 368.775,-72.623 358.18,-72.5805 360.466,-79.1968"/>
</g>
<!-- Node11 -->
<g id="node11" class="node"><title>Node11</title>
<g id="a_node11"><a xlink:href="logger_8h.html" target="_top" xlink:title="Simple logger functions that allow logging of various informations and errors. ">
<polygon fill="white" stroke="black" points="419.5,-56.5 419.5,-75.5 470.5,-75.5 470.5,-56.5 419.5,-56.5"/>
<text text-anchor="middle" x="445" y="-63.5" font-family="Helvetica,sans-Serif" font-size="10.00">logger.h</text>
</a>
</g>
</g>
<!-- Node1&#45;&gt;Node11 -->
<g id="edge11" class="edge"><title>Node1&#45;&gt;Node11</title>
<path fill="none" stroke="midnightblue" d="M244.081,-117.077C274.336,-109.685 342.024,-93.0952 409.451,-76.1202"/>
<polygon fill="midnightblue" stroke="midnightblue" points="410.552,-79.4523 419.393,-73.614 408.841,-72.6646 410.552,-79.4523"/>
</g>
<!-- Node8&#45;&gt;Node3 -->
<g id="edge8" class="edge"><title>Node8&#45;&gt;Node3</title>
<path fill="none" stroke="midnightblue" d="M368.848,-59.1474C365.605,-58.0462 362.207,-56.9451 359,-56 307.099,-40.7067 245.908,-26.4836 208.806,-18.2721"/>
<polygon fill="midnightblue" stroke="midnightblue" points="209.527,-14.8469 199.009,-16.1196 208.025,-21.6839 209.527,-14.8469"/>
</g>
<!-- Node9 -->
<g id="node9" class="node"><title>Node9</title>
<polygon fill="white" stroke="#bfbfbf" points="319,-0.5 319,-19.5 375,-19.5 375,-0.5 319,-0.5"/>
<text text-anchor="middle" x="347" y="-7.5" font-family="Helvetica,sans-Serif" font-size="10.00">stdbool.h</text>
</g>
<!-- Node8&#45;&gt;Node9 -->
<g id="edge9" class="edge"><title>Node8&#45;&gt;Node9</title>
<path fill="none" stroke="midnightblue" d="M378.725,-56.083C373.358,-48.4554 365.482,-37.2645 358.921,-27.9408"/>
<polygon fill="midnightblue" stroke="midnightblue" points="361.775,-25.9149 353.158,-19.7511 356.051,-29.9434 361.775,-25.9149"/>
</g>
<!-- Node10 -->
<g id="node10" class="node"><title>Node10</title>
<polygon fill="white" stroke="#bfbfbf" points="393,-0.5 393,-19.5 453,-19.5 453,-0.5 393,-0.5"/>
<text text-anchor="middle" x="423" y="-7.5" font-family="Helvetica,sans-Serif" font-size="10.00">sys/stat.h</text>
</g>
<!-- Node8&#45;&gt;Node10 -->
<g id="edge10" class="edge"><title>Node8&#45;&gt;Node10</title>
<path fill="none" stroke="midnightblue" d="M391.275,-56.083C396.642,-48.4554 404.518,-37.2645 411.079,-27.9408"/>
<polygon fill="midnightblue" stroke="midnightblue" points="413.949,-29.9434 416.842,-19.7511 408.225,-25.9149 413.949,-29.9434"/>
</g>
</g>
</svg>
