<?xml version="1.0" encoding="UTF-8" standalone="no"?>
<!DOCTYPE svg PUBLIC "-//W3C//DTD SVG 1.1//EN"
 "http://www.w3.org/Graphics/SVG/1.1/DTD/svg11.dtd">
<!-- Generated by graphviz version 2.38.0 (20140413.2041)
 -->
<!-- Title: ipc.c Pages: 1 -->
<svg width="533pt" height="140pt"
 viewBox="0.00 0.00 533.00 140.00" xmlns="http://www.w3.org/2000/svg" xmlns:xlink="http://www.w3.org/1999/xlink">
<g id="graph0" class="graph" transform="scale(1 1) rotate(0) translate(4 136)">
<title>ipc.c</title>
<polygon fill="white" stroke="none" points="-4,4 -4,-136 529,-136 529,4 -4,4"/>
<!-- Node1 -->
<g id="node1" class="node"><title>Node1</title>
<polygon fill="#bfbfbf" stroke="black" points="243,-112.5 243,-131.5 281,-131.5 281,-112.5 243,-112.5"/>
<text text-anchor="middle" x="262" y="-119.5" font-family="Helvetica,sans-Serif" font-size="10.00">ipc.c</text>
</g>
<!-- Node2 -->
<g id="node2" class="node"><title>Node2</title>
<polygon fill="white" stroke="#bfbfbf" points="0,-56.5 0,-75.5 46,-75.5 46,-56.5 0,-56.5"/>
<text text-anchor="middle" x="23" y="-63.5" font-family="Helvetica,sans-Serif" font-size="10.00">stdio.h</text>
</g>
<!-- Node1&#45;&gt;Node2 -->
<g id="edge1" class="edge"><title>Node1&#45;&gt;Node2</title>
<path fill="none" stroke="midnightblue" d="M242.896,-117.168C206.431,-109.777 124.438,-92.7958 56,-76 55.8991,-75.9752 55.798,-75.9504 55.6967,-75.9254"/>
<polygon fill="midnightblue" stroke="midnightblue" points="56.5962,-72.5429 46.0398,-73.4451 54.8547,-79.3229 56.5962,-72.5429"/>
</g>
<!-- Node3 -->
<g id="node3" class="node"><title>Node3</title>
<polygon fill="white" stroke="#bfbfbf" points="64.5,-56.5 64.5,-75.5 113.5,-75.5 113.5,-56.5 64.5,-56.5"/>
<text text-anchor="middle" x="89" y="-63.5" font-family="Helvetica,sans-Serif" font-size="10.00">string.h</text>
</g>
<!-- Node1&#45;&gt;Node3 -->
<g id="edge2" class="edge"><title>Node1&#45;&gt;Node3</title>
<path fill="none" stroke="midnightblue" d="M242.825,-115.015C213.956,-106.004 158.905,-88.8202 123.092,-77.6414"/>
<polygon fill="midnightblue" stroke="midnightblue" points="124.127,-74.2981 113.538,-74.6594 122.041,-80.9801 124.127,-74.2981"/>
</g>
<!-- Node4 -->
<g id="node4" class="node"><title>Node4</title>
<polygon fill="white" stroke="#bfbfbf" points="131.5,-56.5 131.5,-75.5 182.5,-75.5 182.5,-56.5 131.5,-56.5"/>
<text text-anchor="middle" x="157" y="-63.5" font-family="Helvetica,sans-Serif" font-size="10.00">unistd.h</text>
</g>
<!-- Node1&#45;&gt;Node4 -->
<g id="edge3" class="edge"><title>Node1&#45;&gt;Node4</title>
<path fill="none" stroke="midnightblue" d="M245.13,-112.324C228.291,-103.664 202.193,-90.2424 182.762,-80.249"/>
<polygon fill="midnightblue" stroke="midnightblue" points="184.322,-77.1155 173.828,-75.6545 181.12,-83.3405 184.322,-77.1155"/>
</g>
<!-- Node5 -->
<g id="node5" class="node"><title>Node5</title>
<polygon fill="white" stroke="#bfbfbf" points="201,-56.5 201,-75.5 251,-75.5 251,-56.5 201,-56.5"/>
<text text-anchor="middle" x="226" y="-63.5" font-family="Helvetica,sans-Serif" font-size="10.00">signal.h</text>
</g>
<!-- Node1&#45;&gt;Node5 -->
<g id="edge4" class="edge"><title>Node1&#45;&gt;Node5</title>
<path fill="none" stroke="midnightblue" d="M256.055,-112.083C251.023,-104.534 243.663,-93.4948 237.487,-84.2298"/>
<polygon fill="midnightblue" stroke="midnightblue" points="240.293,-82.1301 231.834,-75.7511 234.469,-86.0131 240.293,-82.1301"/>
</g>
<!-- Node6 -->
<g id="node6" class="node"><title>Node6</title>
<polygon fill="white" stroke="#bfbfbf" points="269.5,-56.5 269.5,-75.5 328.5,-75.5 328.5,-56.5 269.5,-56.5"/>
<text text-anchor="middle" x="299" y="-63.5" font-family="Helvetica,sans-Serif" font-size="10.00">inttypes.h</text>
</g>
<!-- Node1&#45;&gt;Node6 -->
<g id="edge5" class="edge"><title>Node1&#45;&gt;Node6</title>
<path fill="none" stroke="midnightblue" d="M268.11,-112.083C273.282,-104.534 280.846,-93.4948 287.194,-84.2298"/>
<polygon fill="midnightblue" stroke="midnightblue" points="290.239,-85.9787 293.004,-75.7511 284.464,-82.0221 290.239,-85.9787"/>
</g>
<!-- Node7 -->
<g id="node7" class="node"><title>Node7</title>
<g id="a_node7"><a xlink:href="ipc_8h.html" target="_top" xlink:title="Manage communication between different instance of smartfolder. ">
<polygon fill="white" stroke="black" points="347,-56.5 347,-75.5 385,-75.5 385,-56.5 347,-56.5"/>
<text text-anchor="middle" x="366" y="-63.5" font-family="Helvetica,sans-Serif" font-size="10.00">ipc.h</text>
</a>
</g>
</g>
<!-- Node1&#45;&gt;Node7 -->
<g id="edge6" class="edge"><title>Node1&#45;&gt;Node7</title>
<path fill="none" stroke="midnightblue" d="M278.709,-112.324C295.312,-103.703 321.002,-90.3643 340.22,-80.3855"/>
<polygon fill="midnightblue" stroke="midnightblue" points="342.07,-83.3689 349.332,-75.6545 338.844,-77.1565 342.07,-83.3689"/>
</g>
<!-- Node8 -->
<g id="node8" class="node"><title>Node8</title>
<g id="a_node8"><a xlink:href="io_8h.html" target="_top" xlink:title="Helpers function around system calls for IO purpose. ">
<polygon fill="white" stroke="black" points="403,-56.5 403,-75.5 435,-75.5 435,-56.5 403,-56.5"/>
<text text-anchor="middle" x="419" y="-63.5" font-family="Helvetica,sans-Serif" font-size="10.00">io.h</text>
</a>
</g>
</g>
<!-- Node1&#45;&gt;Node8 -->
<g id="edge7" class="edge"><title>Node1&#45;&gt;Node8</title>
<path fill="none" stroke="midnightblue" d="M281.273,-114.544C305.303,-106.47 347.865,-92.0899 393.172,-76.2504"/>
<polygon fill="midnightblue" stroke="midnightblue" points="394.596,-79.4601 402.876,-72.85 392.282,-72.8539 394.596,-79.4601"/>
</g>
<!-- Node12 -->
<g id="node12" class="node"><title>Node12</title>
<g id="a_node12"><a xlink:href="logger_8h.html" target="_top" xlink:title="Simple logger functions that allow logging of various informations and errors. ">
<polygon fill="white" stroke="black" points="453.5,-56.5 453.5,-75.5 504.5,-75.5 504.5,-56.5 453.5,-56.5"/>
<text text-anchor="middle" x="479" y="-63.5" font-family="Helvetica,sans-Serif" font-size="10.00">logger.h</text>
</a>
</g>
</g>
<!-- Node1&#45;&gt;Node12 -->
<g id="edge11" class="edge"><title>Node1&#45;&gt;Node12</title>
<path fill="none" stroke="midnightblue" d="M281.143,-116.329C312.705,-108.614 377.885,-92.6267 443.318,-76.1537"/>
<polygon fill="midnightblue" stroke="midnightblue" points="444.552,-79.4523 453.393,-73.614 442.841,-72.6647 444.552,-79.4523"/>
</g>
<!-- Node9 -->
<g id="node9" class="node"><title>Node9</title>
<polygon fill="white" stroke="#bfbfbf" points="325,-0.5 325,-19.5 373,-19.5 373,-0.5 325,-0.5"/>
<text text-anchor="middle" x="349" y="-7.5" font-family="Helvetica,sans-Serif" font-size="10.00">stdlib.h</text>
</g>
<!-- Node8&#45;&gt;Node9 -->
<g id="edge8" class="edge"><title>Node8&#45;&gt;Node9</title>
<path fill="none" stroke="midnightblue" d="M407.753,-56.324C397.203,-48.1849 381.199,-35.8395 368.558,-26.0874"/>
<polygon fill="midnightblue" stroke="midnightblue" points="370.507,-23.1707 360.451,-19.8339 366.231,-28.7132 370.507,-23.1707"/>
</g>
<!-- Node10 -->
<g id="node10" class="node"><title>Node10</title>
<polygon fill="white" stroke="#bfbfbf" points="391,-0.5 391,-19.5 447,-19.5 447,-0.5 391,-0.5"/>
<text text-anchor="middle" x="419" y="-7.5" font-family="Helvetica,sans-Serif" font-size="10.00">stdbool.h</text>
</g>
<!-- Node8&#45;&gt;Node10 -->
<g id="edge9" class="edge"><title>Node8&#45;&gt;Node10</title>
<path fill="none" stroke="midnightblue" d="M419,-56.083C419,-49.0059 419,-38.8611 419,-29.9865"/>
<polygon fill="midnightblue" stroke="midnightblue" points="422.5,-29.751 419,-19.7511 415.5,-29.7511 422.5,-29.751"/>
</g>
<!-- Node11 -->
<g id="node11" class="node"><title>Node11</title>
<polygon fill="white" stroke="#bfbfbf" points="465,-0.5 465,-19.5 525,-19.5 525,-0.5 465,-0.5"/>
<text text-anchor="middle" x="495" y="-7.5" font-family="Helvetica,sans-Serif" font-size="10.00">sys/stat.h</text>
</g>
<!-- Node8&#45;&gt;Node11 -->
<g id="edge10" class="edge"><title>Node8&#45;&gt;Node11</title>
<path fill="none" stroke="midnightblue" d="M431.211,-56.324C442.776,-48.1066 460.375,-35.6017 474.161,-25.8069"/>
<polygon fill="midnightblue" stroke="midnightblue" points="476.443,-28.4791 482.567,-19.8339 472.388,-22.7729 476.443,-28.4791"/>
</g>
</g>
</svg>
