<?xml version="1.0" encoding="UTF-8" standalone="no"?>
<!DOCTYPE svg PUBLIC "-//W3C//DTD SVG 1.1//EN"
 "http://www.w3.org/Graphics/SVG/1.1/DTD/svg11.dtd">
<!-- Generated by graphviz version 2.38.0 (20140413.2041)
 -->
<!-- Title: linker.c Pages: 1 -->
<svg width="492pt" height="308pt"
 viewBox="0.00 0.00 492.18 308.00" xmlns="http://www.w3.org/2000/svg" xmlns:xlink="http://www.w3.org/1999/xlink">
<g id="graph0" class="graph" transform="scale(1 1) rotate(0) translate(4 304)">
<title>linker.c</title>
<polygon fill="white" stroke="none" points="-4,4 -4,-304 488.179,-304 488.179,4 -4,4"/>
<!-- Node1 -->
<g id="node1" class="node"><title>Node1</title>
<polygon fill="#bfbfbf" stroke="black" points="202,-280.5 202,-299.5 250,-299.5 250,-280.5 202,-280.5"/>
<text text-anchor="middle" x="226" y="-287.5" font-family="Helvetica,sans-Serif" font-size="10.00">linker.c</text>
</g>
<!-- Node2 -->
<g id="node2" class="node"><title>Node2</title>
<polygon fill="white" stroke="#bfbfbf" points="0,-224.5 0,-243.5 46,-243.5 46,-224.5 0,-224.5"/>
<text text-anchor="middle" x="23" y="-231.5" font-family="Helvetica,sans-Serif" font-size="10.00">stdio.h</text>
</g>
<!-- Node1&#45;&gt;Node2 -->
<g id="edge1" class="edge"><title>Node1&#45;&gt;Node2</title>
<path fill="none" stroke="midnightblue" d="M201.774,-282.648C168.784,-273.985 107.893,-257.944 56,-244 55.8996,-243.973 55.7991,-243.946 55.6984,-243.919"/>
<polygon fill="midnightblue" stroke="midnightblue" points="56.6399,-240.548 46.073,-241.316 54.8127,-247.305 56.6399,-240.548"/>
</g>
<!-- Node3 -->
<g id="node3" class="node"><title>Node3</title>
<polygon fill="white" stroke="#bfbfbf" points="64.5,-224.5 64.5,-243.5 113.5,-243.5 113.5,-224.5 64.5,-224.5"/>
<text text-anchor="middle" x="89" y="-231.5" font-family="Helvetica,sans-Serif" font-size="10.00">string.h</text>
</g>
<!-- Node1&#45;&gt;Node3 -->
<g id="edge2" class="edge"><title>Node1&#45;&gt;Node3</title>
<path fill="none" stroke="midnightblue" d="M204.292,-280.444C181.645,-271.517 145.928,-257.439 120.248,-247.317"/>
<polygon fill="midnightblue" stroke="midnightblue" points="121.193,-243.927 110.606,-243.516 118.626,-250.44 121.193,-243.927"/>
</g>
<!-- Node4 -->
<g id="node4" class="node"><title>Node4</title>
<polygon fill="white" stroke="#bfbfbf" points="131.5,-224.5 131.5,-243.5 182.5,-243.5 182.5,-224.5 131.5,-224.5"/>
<text text-anchor="middle" x="157" y="-231.5" font-family="Helvetica,sans-Serif" font-size="10.00">unistd.h</text>
</g>
<!-- Node1&#45;&gt;Node4 -->
<g id="edge3" class="edge"><title>Node1&#45;&gt;Node4</title>
<path fill="none" stroke="midnightblue" d="M214.914,-280.324C204.514,-272.185 188.739,-259.839 176.278,-250.087"/>
<polygon fill="midnightblue" stroke="midnightblue" points="178.32,-247.241 168.288,-243.834 174.006,-252.753 178.32,-247.241"/>
</g>
<!-- Node5 -->
<g id="node5" class="node"><title>Node5</title>
<polygon fill="white" stroke="#bfbfbf" points="201,-224.5 201,-243.5 251,-243.5 251,-224.5 201,-224.5"/>
<text text-anchor="middle" x="226" y="-231.5" font-family="Helvetica,sans-Serif" font-size="10.00">libgen.h</text>
</g>
<!-- Node1&#45;&gt;Node5 -->
<g id="edge4" class="edge"><title>Node1&#45;&gt;Node5</title>
<path fill="none" stroke="midnightblue" d="M226,-280.083C226,-273.006 226,-262.861 226,-253.986"/>
<polygon fill="midnightblue" stroke="midnightblue" points="229.5,-253.751 226,-243.751 222.5,-253.751 229.5,-253.751"/>
</g>
<!-- Node6 -->
<g id="node6" class="node"><title>Node6</title>
<g id="a_node6"><a xlink:href="linker_8h.html" target="_top" xlink:title="The linker maintains an updated list of links to the found files. ">
<polygon fill="white" stroke="black" points="269,-224.5 269,-243.5 317,-243.5 317,-224.5 269,-224.5"/>
<text text-anchor="middle" x="293" y="-231.5" font-family="Helvetica,sans-Serif" font-size="10.00">linker.h</text>
</a>
</g>
</g>
<!-- Node1&#45;&gt;Node6 -->
<g id="edge5" class="edge"><title>Node1&#45;&gt;Node6</title>
<path fill="none" stroke="midnightblue" d="M236.765,-280.324C246.766,-272.263 261.887,-260.077 273.93,-250.369"/>
<polygon fill="midnightblue" stroke="midnightblue" points="276.45,-252.834 282.039,-243.834 272.057,-247.384 276.45,-252.834"/>
</g>
<!-- Node13 -->
<g id="node13" class="node"><title>Node13</title>
<g id="a_node13"><a xlink:href="io_8h.html" target="_top" xlink:title="Helpers function around system calls for IO purpose. ">
<polygon fill="white" stroke="black" points="383,-112.5 383,-131.5 415,-131.5 415,-112.5 383,-112.5"/>
<text text-anchor="middle" x="399" y="-119.5" font-family="Helvetica,sans-Serif" font-size="10.00">io.h</text>
</a>
</g>
</g>
<!-- Node1&#45;&gt;Node13 -->
<g id="edge14" class="edge"><title>Node1&#45;&gt;Node13</title>
<path fill="none" stroke="midnightblue" d="M250.104,-282.655C271.919,-275.944 303.921,-263.577 326,-244 359.075,-214.673 381.753,-166.69 392.286,-140.839"/>
<polygon fill="midnightblue" stroke="midnightblue" points="395.548,-142.108 395.943,-131.521 389.032,-139.551 395.548,-142.108"/>
</g>
<!-- Node14 -->
<g id="node14" class="node"><title>Node14</title>
<g id="a_node14"><a xlink:href="logger_8h.html" target="_top" xlink:title="Simple logger functions that allow logging of various informations and errors. ">
<polygon fill="white" stroke="black" points="373.5,-224.5 373.5,-243.5 424.5,-243.5 424.5,-224.5 373.5,-224.5"/>
<text text-anchor="middle" x="399" y="-231.5" font-family="Helvetica,sans-Serif" font-size="10.00">logger.h</text>
</a>
</g>
</g>
<!-- Node1&#45;&gt;Node14 -->
<g id="edge18" class="edge"><title>Node1&#45;&gt;Node14</title>
<path fill="none" stroke="midnightblue" d="M250.055,-281.492C279.504,-272.299 329.628,-256.654 363.509,-246.078"/>
<polygon fill="midnightblue" stroke="midnightblue" points="364.959,-249.292 373.462,-242.972 362.873,-242.61 364.959,-249.292"/>
</g>
<!-- Node7 -->
<g id="node7" class="node"><title>Node7</title>
<polygon fill="white" stroke="#bfbfbf" points="241,-0.5 241,-19.5 289,-19.5 289,-0.5 241,-0.5"/>
<text text-anchor="middle" x="265" y="-7.5" font-family="Helvetica,sans-Serif" font-size="10.00">stdlib.h</text>
</g>
<!-- Node6&#45;&gt;Node7 -->
<g id="edge6" class="edge"><title>Node6&#45;&gt;Node7</title>
<path fill="none" stroke="midnightblue" d="M283.918,-224.322C275.771,-215.901 264.306,-202.324 259,-188 238.594,-132.909 243.766,-114.169 252,-56 253.268,-47.0425 255.889,-37.372 258.448,-29.2998"/>
<polygon fill="midnightblue" stroke="midnightblue" points="261.771,-30.3976 261.656,-19.8034 255.139,-28.1569 261.771,-30.3976"/>
</g>
<!-- Node8 -->
<g id="node8" class="node"><title>Node8</title>
<g id="a_node8"><a xlink:href="finder_8h.html" target="_top" xlink:title="The finder retrives the list of files matching an expression. ">
<polygon fill="white" stroke="black" points="267.5,-168.5 267.5,-187.5 316.5,-187.5 316.5,-168.5 267.5,-168.5"/>
<text text-anchor="middle" x="292" y="-175.5" font-family="Helvetica,sans-Serif" font-size="10.00">finder.h</text>
</a>
</g>
</g>
<!-- Node6&#45;&gt;Node8 -->
<g id="edge7" class="edge"><title>Node6&#45;&gt;Node8</title>
<path fill="none" stroke="midnightblue" d="M292.835,-224.083C292.704,-217.006 292.516,-206.861 292.352,-197.986"/>
<polygon fill="midnightblue" stroke="midnightblue" points="295.847,-197.685 292.162,-187.751 288.848,-197.814 295.847,-197.685"/>
</g>
<!-- Node8&#45;&gt;Node7 -->
<g id="edge8" class="edge"><title>Node8&#45;&gt;Node7</title>
<path fill="none" stroke="midnightblue" d="M287.157,-168.417C276.681,-148.913 253.157,-99.5671 257,-56 257.776,-47.1966 259.391,-37.5357 260.969,-29.4298"/>
<polygon fill="midnightblue" stroke="midnightblue" points="264.41,-30.0689 263.013,-19.5666 257.556,-28.648 264.41,-30.0689"/>
</g>
<!-- Node9 -->
<g id="node9" class="node"><title>Node9</title>
<g id="a_node9"><a xlink:href="validator_8h.html" target="_top" xlink:title="Validates files against a parsed criteria expression. ">
<polygon fill="white" stroke="black" points="301,-112.5 301,-131.5 363,-131.5 363,-112.5 301,-112.5"/>
<text text-anchor="middle" x="332" y="-119.5" font-family="Helvetica,sans-Serif" font-size="10.00">validator.h</text>
</a>
</g>
</g>
<!-- Node8&#45;&gt;Node9 -->
<g id="edge9" class="edge"><title>Node8&#45;&gt;Node9</title>
<path fill="none" stroke="midnightblue" d="M298.605,-168.083C304.255,-160.455 312.545,-149.264 319.451,-139.941"/>
<polygon fill="midnightblue" stroke="midnightblue" points="322.378,-141.87 325.518,-131.751 316.753,-137.703 322.378,-141.87"/>
</g>
<!-- Node10 -->
<g id="node10" class="node"><title>Node10</title>
<polygon fill="white" stroke="#bfbfbf" points="414,-56.5 414,-75.5 470,-75.5 470,-56.5 414,-56.5"/>
<text text-anchor="middle" x="442" y="-63.5" font-family="Helvetica,sans-Serif" font-size="10.00">stdbool.h</text>
</g>
<!-- Node9&#45;&gt;Node10 -->
<g id="edge10" class="edge"><title>Node9&#45;&gt;Node10</title>
<path fill="none" stroke="midnightblue" d="M349.673,-112.324C367.394,-103.625 394.903,-90.1202 415.288,-80.113"/>
<polygon fill="midnightblue" stroke="midnightblue" points="416.936,-83.2031 424.37,-75.6545 413.851,-76.9195 416.936,-83.2031"/>
</g>
<!-- Node11 -->
<g id="node11" class="node"><title>Node11</title>
<polygon fill="white" stroke="#bfbfbf" points="336,-56.5 336,-75.5 396,-75.5 396,-56.5 336,-56.5"/>
<text text-anchor="middle" x="366" y="-63.5" font-family="Helvetica,sans-Serif" font-size="10.00">sys/stat.h</text>
</g>
<!-- Node9&#45;&gt;Node11 -->
<g id="edge11" class="edge"><title>Node9&#45;&gt;Node11</title>
<path fill="none" stroke="midnightblue" d="M337.614,-112.083C342.367,-104.534 349.318,-93.4948 355.152,-84.2298"/>
<polygon fill="midnightblue" stroke="midnightblue" points="358.124,-86.0783 360.49,-75.7511 352.2,-82.3486 358.124,-86.0783"/>
</g>
<!-- Node12 -->
<g id="node12" class="node"><title>Node12</title>
<g id="a_node12"><a xlink:href="parser_8h.html" target="_top" xlink:title="Parses a string expression and return a formal representation. ">
<polygon fill="white" stroke="black" points="266,-56.5 266,-75.5 318,-75.5 318,-56.5 266,-56.5"/>
<text text-anchor="middle" x="292" y="-63.5" font-family="Helvetica,sans-Serif" font-size="10.00">parser.h</text>
</a>
</g>
</g>
<!-- Node9&#45;&gt;Node12 -->
<g id="edge12" class="edge"><title>Node9&#45;&gt;Node12</title>
<path fill="none" stroke="midnightblue" d="M325.395,-112.083C319.745,-104.455 311.455,-93.2645 304.549,-83.9408"/>
<polygon fill="midnightblue" stroke="midnightblue" points="307.247,-81.7034 298.482,-75.7511 301.622,-85.87 307.247,-81.7034"/>
</g>
<!-- Node12&#45;&gt;Node7 -->
<g id="edge13" class="edge"><title>Node12&#45;&gt;Node7</title>
<path fill="none" stroke="midnightblue" d="M287.541,-56.083C283.846,-48.6913 278.477,-37.9533 273.906,-28.8111"/>
<polygon fill="midnightblue" stroke="midnightblue" points="276.978,-27.1301 269.376,-19.7511 270.717,-30.2606 276.978,-27.1301"/>
</g>
<!-- Node13&#45;&gt;Node7 -->
<g id="edge15" class="edge"><title>Node13&#45;&gt;Node7</title>
<path fill="none" stroke="midnightblue" d="M415.105,-116C444.242,-106.144 500.765,-82.8175 479,-56 456.795,-28.6402 354.278,-17.298 299.591,-13.1296"/>
<polygon fill="midnightblue" stroke="midnightblue" points="299.555,-9.61798 289.329,-12.3889 299.051,-16.5998 299.555,-9.61798"/>
</g>
<!-- Node13&#45;&gt;Node10 -->
<g id="edge16" class="edge"><title>Node13&#45;&gt;Node10</title>
<path fill="none" stroke="midnightblue" d="M406.101,-112.083C412.237,-104.377 421.27,-93.0333 428.739,-83.6531"/>
<polygon fill="midnightblue" stroke="midnightblue" points="431.54,-85.7542 435.032,-75.7511 426.064,-81.3936 431.54,-85.7542"/>
</g>
<!-- Node13&#45;&gt;Node11 -->
<g id="edge17" class="edge"><title>Node13&#45;&gt;Node11</title>
<path fill="none" stroke="midnightblue" d="M393.551,-112.083C388.986,-104.613 382.332,-93.7244 376.707,-84.5199"/>
<polygon fill="midnightblue" stroke="midnightblue" points="379.549,-82.4588 371.348,-75.7511 373.576,-86.109 379.549,-82.4588"/>
</g>
</g>
</svg>
