<?xml version="1.0" encoding="UTF-8" standalone="no"?>
<!DOCTYPE svg PUBLIC "-//W3C//DTD SVG 1.1//EN"
 "http://www.w3.org/Graphics/SVG/1.1/DTD/svg11.dtd">
<!-- Generated by graphviz version 2.38.0 (20140413.2041)
 -->
<!-- Title: linker.h Pages: 1 -->
<svg width="276pt" height="252pt"
 viewBox="0.00 0.00 276.00 252.00" xmlns="http://www.w3.org/2000/svg" xmlns:xlink="http://www.w3.org/1999/xlink">
<g id="graph0" class="graph" transform="scale(1 1) rotate(0) translate(4 248)">
<title>linker.h</title>
<polygon fill="white" stroke="none" points="-4,4 -4,-248 272,-248 272,4 -4,4"/>
<!-- Node1 -->
<g id="node1" class="node"><title>Node1</title>
<polygon fill="#bfbfbf" stroke="black" points="0,-224.5 0,-243.5 48,-243.5 48,-224.5 0,-224.5"/>
<text text-anchor="middle" x="24" y="-231.5" font-family="Helvetica,sans-Serif" font-size="10.00">linker.h</text>
</g>
<!-- Node2 -->
<g id="node2" class="node"><title>Node2</title>
<polygon fill="white" stroke="#bfbfbf" points="12,-0.5 12,-19.5 60,-19.5 60,-0.5 12,-0.5"/>
<text text-anchor="middle" x="36" y="-7.5" font-family="Helvetica,sans-Serif" font-size="10.00">stdlib.h</text>
</g>
<!-- Node1&#45;&gt;Node2 -->
<g id="edge1" class="edge"><title>Node1&#45;&gt;Node2</title>
<path fill="none" stroke="midnightblue" d="M22.2611,-224.419C20.5282,-215.399 17.9873,-200.77 17,-188 12.5248,-130.116 24.848,-61.8753 31.7261,-29.6454"/>
<polygon fill="midnightblue" stroke="midnightblue" points="35.1564,-30.3426 33.8955,-19.823 28.3212,-28.8329 35.1564,-30.3426"/>
</g>
<!-- Node3 -->
<g id="node3" class="node"><title>Node3</title>
<g id="a_node3"><a xlink:href="finder_8h.html" target="_top" xlink:title="The finder retrives the list of files matching an expression. ">
<polygon fill="white" stroke="black" points="26.5,-168.5 26.5,-187.5 75.5,-187.5 75.5,-168.5 26.5,-168.5"/>
<text text-anchor="middle" x="51" y="-175.5" font-family="Helvetica,sans-Serif" font-size="10.00">finder.h</text>
</a>
</g>
</g>
<!-- Node1&#45;&gt;Node3 -->
<g id="edge2" class="edge"><title>Node1&#45;&gt;Node3</title>
<path fill="none" stroke="midnightblue" d="M28.4585,-224.083C32.1543,-216.691 37.5234,-205.953 42.0945,-196.811"/>
<polygon fill="midnightblue" stroke="midnightblue" points="45.2828,-198.261 46.6245,-187.751 39.0218,-195.13 45.2828,-198.261"/>
</g>
<!-- Node3&#45;&gt;Node2 -->
<g id="edge3" class="edge"><title>Node3&#45;&gt;Node2</title>
<path fill="none" stroke="midnightblue" d="M50.1935,-168.075C47.8324,-141.945 40.8985,-65.2106 37.6786,-29.577"/>
<polygon fill="midnightblue" stroke="midnightblue" points="41.1601,-29.2125 36.7742,-19.5681 34.1885,-29.8425 41.1601,-29.2125"/>
</g>
<!-- Node4 -->
<g id="node4" class="node"><title>Node4</title>
<g id="a_node4"><a xlink:href="validator_8h.html" target="_top" xlink:title="Validates files against a parsed criteria expression. ">
<polygon fill="white" stroke="black" points="100,-112.5 100,-131.5 162,-131.5 162,-112.5 100,-112.5"/>
<text text-anchor="middle" x="131" y="-119.5" font-family="Helvetica,sans-Serif" font-size="10.00">validator.h</text>
</a>
</g>
</g>
<!-- Node3&#45;&gt;Node4 -->
<g id="edge4" class="edge"><title>Node3&#45;&gt;Node4</title>
<path fill="none" stroke="midnightblue" d="M63.8534,-168.324C76.2164,-159.979 95.1301,-147.212 109.737,-137.352"/>
<polygon fill="midnightblue" stroke="midnightblue" points="111.848,-140.15 118.179,-131.655 107.932,-134.348 111.848,-140.15"/>
</g>
<!-- Node5 -->
<g id="node5" class="node"><title>Node5</title>
<polygon fill="white" stroke="#bfbfbf" points="64,-56.5 64,-75.5 120,-75.5 120,-56.5 64,-56.5"/>
<text text-anchor="middle" x="92" y="-63.5" font-family="Helvetica,sans-Serif" font-size="10.00">stdbool.h</text>
</g>
<!-- Node4&#45;&gt;Node5 -->
<g id="edge5" class="edge"><title>Node4&#45;&gt;Node5</title>
<path fill="none" stroke="midnightblue" d="M124.56,-112.083C119.051,-104.455 110.969,-93.2645 104.235,-83.9408"/>
<polygon fill="midnightblue" stroke="midnightblue" points="107.013,-81.8087 98.3202,-75.7511 101.338,-85.9071 107.013,-81.8087"/>
</g>
<!-- Node6 -->
<g id="node6" class="node"><title>Node6</title>
<polygon fill="white" stroke="#bfbfbf" points="138,-56.5 138,-75.5 198,-75.5 198,-56.5 138,-56.5"/>
<text text-anchor="middle" x="168" y="-63.5" font-family="Helvetica,sans-Serif" font-size="10.00">sys/stat.h</text>
</g>
<!-- Node4&#45;&gt;Node6 -->
<g id="edge6" class="edge"><title>Node4&#45;&gt;Node6</title>
<path fill="none" stroke="midnightblue" d="M137.11,-112.083C142.282,-104.534 149.846,-93.4948 156.194,-84.2298"/>
<polygon fill="midnightblue" stroke="midnightblue" points="159.239,-85.9787 162.004,-75.7511 153.464,-82.0221 159.239,-85.9787"/>
</g>
<!-- Node7 -->
<g id="node7" class="node"><title>Node7</title>
<g id="a_node7"><a xlink:href="parser_8h.html" target="_top" xlink:title="Parses a string expression and return a formal representation. ">
<polygon fill="white" stroke="black" points="216,-56.5 216,-75.5 268,-75.5 268,-56.5 216,-56.5"/>
<text text-anchor="middle" x="242" y="-63.5" font-family="Helvetica,sans-Serif" font-size="10.00">parser.h</text>
</a>
</g>
</g>
<!-- Node4&#45;&gt;Node7 -->
<g id="edge7" class="edge"><title>Node4&#45;&gt;Node7</title>
<path fill="none" stroke="midnightblue" d="M148.834,-112.324C166.716,-103.625 194.475,-90.1202 215.046,-80.113"/>
<polygon fill="midnightblue" stroke="midnightblue" points="216.749,-83.1765 224.21,-75.6545 213.687,-76.8819 216.749,-83.1765"/>
</g>
<!-- Node7&#45;&gt;Node2 -->
<g id="edge8" class="edge"><title>Node7&#45;&gt;Node2</title>
<path fill="none" stroke="midnightblue" d="M215.91,-58.1609C178.882,-48.4544 111.043,-30.6715 70.0797,-19.9335"/>
<polygon fill="midnightblue" stroke="midnightblue" points="70.8401,-16.5147 60.2794,-17.3645 69.0651,-23.2859 70.8401,-16.5147"/>
</g>
</g>
</svg>
