<?xml version="1.0" encoding="UTF-8" standalone="no"?>
<!DOCTYPE svg PUBLIC "-//W3C//DTD SVG 1.1//EN"
 "http://www.w3.org/Graphics/SVG/1.1/DTD/svg11.dtd">
<!-- Generated by graphviz version 2.38.0 (20140413.2041)
 -->
<!-- Title: logger.c Pages: 1 -->
<svg width="536pt" height="140pt"
 viewBox="0.00 0.00 536.00 140.00" xmlns="http://www.w3.org/2000/svg" xmlns:xlink="http://www.w3.org/1999/xlink">
<g id="graph0" class="graph" transform="scale(1 1) rotate(0) translate(4 136)">
<title>logger.c</title>
<polygon fill="white" stroke="none" points="-4,4 -4,-136 532,-136 532,4 -4,4"/>
<!-- Node1 -->
<g id="node1" class="node"><title>Node1</title>
<polygon fill="#bfbfbf" stroke="black" points="202.5,-112.5 202.5,-131.5 253.5,-131.5 253.5,-112.5 202.5,-112.5"/>
<text text-anchor="middle" x="228" y="-119.5" font-family="Helvetica,sans-Serif" font-size="10.00">logger.c</text>
</g>
<!-- Node2 -->
<g id="node2" class="node"><title>Node2</title>
<polygon fill="white" stroke="#bfbfbf" points="0,-56.5 0,-75.5 46,-75.5 46,-56.5 0,-56.5"/>
<text text-anchor="middle" x="23" y="-63.5" font-family="Helvetica,sans-Serif" font-size="10.00">stdio.h</text>
</g>
<!-- Node1&#45;&gt;Node2 -->
<g id="edge1" class="edge"><title>Node1&#45;&gt;Node2</title>
<path fill="none" stroke="midnightblue" d="M202.335,-114.374C168.7,-105.67 107.887,-89.8627 56,-76 55.8996,-75.9732 55.799,-75.9463 55.6983,-75.9194"/>
<polygon fill="midnightblue" stroke="midnightblue" points="56.637,-72.5475 46.0707,-73.3247 54.8154,-79.3064 56.637,-72.5475"/>
</g>
<!-- Node3 -->
<g id="node3" class="node"><title>Node3</title>
<polygon fill="white" stroke="#bfbfbf" points="64.5,-56.5 64.5,-75.5 115.5,-75.5 115.5,-56.5 64.5,-56.5"/>
<text text-anchor="middle" x="90" y="-63.5" font-family="Helvetica,sans-Serif" font-size="10.00">unistd.h</text>
</g>
<!-- Node1&#45;&gt;Node3 -->
<g id="edge2" class="edge"><title>Node1&#45;&gt;Node3</title>
<path fill="none" stroke="midnightblue" d="M206.133,-112.444C183.221,-103.478 147.025,-89.314 121.134,-79.1827"/>
<polygon fill="midnightblue" stroke="midnightblue" points="122.352,-75.9011 111.764,-75.5164 119.801,-82.4198 122.352,-75.9011"/>
</g>
<!-- Node4 -->
<g id="node4" class="node"><title>Node4</title>
<polygon fill="white" stroke="#bfbfbf" points="134,-56.5 134,-75.5 186,-75.5 186,-56.5 134,-56.5"/>
<text text-anchor="middle" x="160" y="-63.5" font-family="Helvetica,sans-Serif" font-size="10.00">stdarg.h</text>
</g>
<!-- Node1&#45;&gt;Node4 -->
<g id="edge3" class="edge"><title>Node1&#45;&gt;Node4</title>
<path fill="none" stroke="midnightblue" d="M217.075,-112.324C206.825,-104.185 191.279,-91.8395 178.999,-82.0874"/>
<polygon fill="midnightblue" stroke="midnightblue" points="181.132,-79.3119 171.124,-75.8339 176.779,-84.7937 181.132,-79.3119"/>
</g>
<!-- Node5 -->
<g id="node5" class="node"><title>Node5</title>
<polygon fill="white" stroke="#bfbfbf" points="204.5,-56.5 204.5,-75.5 251.5,-75.5 251.5,-56.5 204.5,-56.5"/>
<text text-anchor="middle" x="228" y="-63.5" font-family="Helvetica,sans-Serif" font-size="10.00">errno.h</text>
</g>
<!-- Node1&#45;&gt;Node5 -->
<g id="edge4" class="edge"><title>Node1&#45;&gt;Node5</title>
<path fill="none" stroke="midnightblue" d="M228,-112.083C228,-105.006 228,-94.8611 228,-85.9865"/>
<polygon fill="midnightblue" stroke="midnightblue" points="231.5,-85.751 228,-75.7511 224.5,-85.7511 231.5,-85.751"/>
</g>
<!-- Node6 -->
<g id="node6" class="node"><title>Node6</title>
<polygon fill="white" stroke="#bfbfbf" points="269.5,-56.5 269.5,-75.5 318.5,-75.5 318.5,-56.5 269.5,-56.5"/>
<text text-anchor="middle" x="294" y="-63.5" font-family="Helvetica,sans-Serif" font-size="10.00">string.h</text>
</g>
<!-- Node1&#45;&gt;Node6 -->
<g id="edge5" class="edge"><title>Node1&#45;&gt;Node6</title>
<path fill="none" stroke="midnightblue" d="M238.604,-112.324C248.456,-104.263 263.351,-92.0765 275.215,-82.3695"/>
<polygon fill="midnightblue" stroke="midnightblue" points="277.68,-84.8752 283.203,-75.8339 273.247,-79.4575 277.68,-84.8752"/>
</g>
<!-- Node7 -->
<g id="node7" class="node"><title>Node7</title>
<g id="a_node7"><a xlink:href="logger_8h.html" target="_top" xlink:title="Simple logger functions that allow logging of various informations and errors. ">
<polygon fill="white" stroke="black" points="336.5,-56.5 336.5,-75.5 387.5,-75.5 387.5,-56.5 336.5,-56.5"/>
<text text-anchor="middle" x="362" y="-63.5" font-family="Helvetica,sans-Serif" font-size="10.00">logger.h</text>
</a>
</g>
</g>
<!-- Node1&#45;&gt;Node7 -->
<g id="edge6" class="edge"><title>Node1&#45;&gt;Node7</title>
<path fill="none" stroke="midnightblue" d="M249.233,-112.444C271.384,-103.517 306.319,-89.4387 331.436,-79.3168"/>
<polygon fill="midnightblue" stroke="midnightblue" points="332.9,-82.5006 340.867,-75.5164 330.283,-76.0079 332.9,-82.5006"/>
</g>
<!-- Node8 -->
<g id="node8" class="node"><title>Node8</title>
<g id="a_node8"><a xlink:href="io_8h.html" target="_top" xlink:title="Helpers function around system calls for IO purpose. ">
<polygon fill="white" stroke="black" points="406,-56.5 406,-75.5 438,-75.5 438,-56.5 406,-56.5"/>
<text text-anchor="middle" x="422" y="-63.5" font-family="Helvetica,sans-Serif" font-size="10.00">io.h</text>
</a>
</g>
</g>
<!-- Node1&#45;&gt;Node8 -->
<g id="edge7" class="edge"><title>Node1&#45;&gt;Node8</title>
<path fill="none" stroke="midnightblue" d="M253.676,-114.888C285.146,-107.24 340.263,-93.3423 396.216,-76.0481"/>
<polygon fill="midnightblue" stroke="midnightblue" points="397.429,-79.3359 405.93,-73.0131 395.342,-72.6544 397.429,-79.3359"/>
</g>
<!-- Node9 -->
<g id="node9" class="node"><title>Node9</title>
<polygon fill="white" stroke="#bfbfbf" points="328,-0.5 328,-19.5 376,-19.5 376,-0.5 328,-0.5"/>
<text text-anchor="middle" x="352" y="-7.5" font-family="Helvetica,sans-Serif" font-size="10.00">stdlib.h</text>
</g>
<!-- Node8&#45;&gt;Node9 -->
<g id="edge8" class="edge"><title>Node8&#45;&gt;Node9</title>
<path fill="none" stroke="midnightblue" d="M410.753,-56.324C400.203,-48.1849 384.199,-35.8395 371.558,-26.0874"/>
<polygon fill="midnightblue" stroke="midnightblue" points="373.507,-23.1707 363.451,-19.8339 369.231,-28.7132 373.507,-23.1707"/>
</g>
<!-- Node10 -->
<g id="node10" class="node"><title>Node10</title>
<polygon fill="white" stroke="#bfbfbf" points="394,-0.5 394,-19.5 450,-19.5 450,-0.5 394,-0.5"/>
<text text-anchor="middle" x="422" y="-7.5" font-family="Helvetica,sans-Serif" font-size="10.00">stdbool.h</text>
</g>
<!-- Node8&#45;&gt;Node10 -->
<g id="edge9" class="edge"><title>Node8&#45;&gt;Node10</title>
<path fill="none" stroke="midnightblue" d="M422,-56.083C422,-49.0059 422,-38.8611 422,-29.9865"/>
<polygon fill="midnightblue" stroke="midnightblue" points="425.5,-29.751 422,-19.7511 418.5,-29.7511 425.5,-29.751"/>
</g>
<!-- Node11 -->
<g id="node11" class="node"><title>Node11</title>
<polygon fill="white" stroke="#bfbfbf" points="468,-0.5 468,-19.5 528,-19.5 528,-0.5 468,-0.5"/>
<text text-anchor="middle" x="498" y="-7.5" font-family="Helvetica,sans-Serif" font-size="10.00">sys/stat.h</text>
</g>
<!-- Node8&#45;&gt;Node11 -->
<g id="edge10" class="edge"><title>Node8&#45;&gt;Node11</title>
<path fill="none" stroke="midnightblue" d="M434.211,-56.324C445.776,-48.1066 463.375,-35.6017 477.161,-25.8069"/>
<polygon fill="midnightblue" stroke="midnightblue" points="479.443,-28.4791 485.567,-19.8339 475.388,-22.7729 479.443,-28.4791"/>
</g>
</g>
</svg>
