<?xml version="1.0" encoding="UTF-8" standalone="no"?>
<!DOCTYPE svg PUBLIC "-//W3C//DTD SVG 1.1//EN"
 "http://www.w3.org/Graphics/SVG/1.1/DTD/svg11.dtd">
<!-- Generated by graphviz version 2.38.0 (20140413.2041)
 -->
<!-- Title: parser.h Pages: 1 -->
<svg width="415pt" height="252pt"
 viewBox="0.00 0.00 414.50 252.00" xmlns="http://www.w3.org/2000/svg" xmlns:xlink="http://www.w3.org/1999/xlink">
<g id="graph0" class="graph" transform="scale(1 1) rotate(0) translate(4 248)">
<title>parser.h</title>
<polygon fill="white" stroke="none" points="-4,4 -4,-248 410.5,-248 410.5,4 -4,4"/>
<!-- Node1 -->
<g id="node1" class="node"><title>Node1</title>
<polygon fill="#bfbfbf" stroke="black" points="300.5,-224.5 300.5,-243.5 352.5,-243.5 352.5,-224.5 300.5,-224.5"/>
<text text-anchor="middle" x="326.5" y="-231.5" font-family="Helvetica,sans-Serif" font-size="10.00">parser.h</text>
</g>
<!-- Node2 -->
<g id="node2" class="node"><title>Node2</title>
<g id="a_node2"><a xlink:href="validator_8h.html" target="_top" xlink:title="Validates files against a parsed criteria expression. ">
<polygon fill="white" stroke="black" points="192.5,-168.5 192.5,-187.5 254.5,-187.5 254.5,-168.5 192.5,-168.5"/>
<text text-anchor="middle" x="223.5" y="-175.5" font-family="Helvetica,sans-Serif" font-size="10.00">validator.h</text>
</a>
</g>
</g>
<!-- Node1&#45;&gt;Node2 -->
<g id="edge1" class="edge"><title>Node1&#45;&gt;Node2</title>
<path fill="none" stroke="midnightblue" d="M300.921,-219.59C281.877,-209.605 256.436,-196.267 240.008,-187.655"/>
<polygon fill="midnightblue" stroke="midnightblue" points="299.469,-222.78 309.951,-224.324 302.72,-216.581 299.469,-222.78"/>
</g>
<!-- Node9 -->
<g id="node9" class="node"><title>Node9</title>
<g id="a_node9"><a xlink:href="main_8c.html" target="_top" xlink:title="Main program: deamonise, parse argument and launch the search. ">
<polygon fill="white" stroke="black" points="255.5,-56.5 255.5,-75.5 301.5,-75.5 301.5,-56.5 255.5,-56.5"/>
<text text-anchor="middle" x="278.5" y="-63.5" font-family="Helvetica,sans-Serif" font-size="10.00">main.c</text>
</a>
</g>
</g>
<!-- Node1&#45;&gt;Node9 -->
<g id="edge12" class="edge"><title>Node1&#45;&gt;Node9</title>
<path fill="none" stroke="midnightblue" d="M325.948,-214.181C324.7,-189.845 320.645,-146.494 307.5,-112 302.27,-98.2778 292.449,-84.3525 285.697,-75.7019"/>
<polygon fill="midnightblue" stroke="midnightblue" points="322.463,-214.627 326.362,-224.478 329.457,-214.345 322.463,-214.627"/>
</g>
<!-- Node11 -->
<g id="node11" class="node"><title>Node11</title>
<g id="a_node11"><a xlink:href="parser_8c.html" target="_top" xlink:title="Parses a string expression and return a formal representation. ">
<polygon fill="white" stroke="black" points="354.5,-168.5 354.5,-187.5 406.5,-187.5 406.5,-168.5 354.5,-168.5"/>
<text text-anchor="middle" x="380.5" y="-175.5" font-family="Helvetica,sans-Serif" font-size="10.00">parser.c</text>
</a>
</g>
</g>
<!-- Node1&#45;&gt;Node11 -->
<g id="edge13" class="edge"><title>Node1&#45;&gt;Node11</title>
<path fill="none" stroke="midnightblue" d="M342.498,-217.002C352.067,-207.433 363.861,-195.639 371.749,-187.751"/>
<polygon fill="midnightblue" stroke="midnightblue" points="340.013,-214.537 335.417,-224.083 344.963,-219.487 340.013,-214.537"/>
</g>
<!-- Node3 -->
<g id="node3" class="node"><title>Node3</title>
<g id="a_node3"><a xlink:href="finder_8h.html" target="_top" xlink:title="The finder retrives the list of files matching an expression. ">
<polygon fill="white" stroke="black" points="69,-112.5 69,-131.5 118,-131.5 118,-112.5 69,-112.5"/>
<text text-anchor="middle" x="93.5" y="-119.5" font-family="Helvetica,sans-Serif" font-size="10.00">finder.h</text>
</a>
</g>
</g>
<!-- Node2&#45;&gt;Node3 -->
<g id="edge2" class="edge"><title>Node2&#45;&gt;Node3</title>
<path fill="none" stroke="midnightblue" d="M193.415,-164.503C169.043,-154.38 135.36,-140.388 114.003,-131.516"/>
<polygon fill="midnightblue" stroke="midnightblue" points="192.323,-167.84 202.901,-168.444 195.009,-161.375 192.323,-167.84"/>
</g>
<!-- Node8 -->
<g id="node8" class="node"><title>Node8</title>
<g id="a_node8"><a xlink:href="searchfolder_8h_source.html" target="_top" xlink:title="searchfolder.h">
<polygon fill="white" stroke="black" points="140.5,-112.5 140.5,-131.5 218.5,-131.5 218.5,-112.5 140.5,-112.5"/>
<text text-anchor="middle" x="179.5" y="-119.5" font-family="Helvetica,sans-Serif" font-size="10.00">searchfolder.h</text>
</a>
</g>
</g>
<!-- Node2&#45;&gt;Node8 -->
<g id="edge8" class="edge"><title>Node2&#45;&gt;Node8</title>
<path fill="none" stroke="midnightblue" d="M209.765,-160.144C202.099,-150.736 192.867,-139.405 186.631,-131.751"/>
<polygon fill="midnightblue" stroke="midnightblue" points="207.204,-162.541 216.234,-168.083 212.631,-158.12 207.204,-162.541"/>
</g>
<!-- Node10 -->
<g id="node10" class="node"><title>Node10</title>
<g id="a_node10"><a xlink:href="validator_8c.html" target="_top" xlink:title="Critera and operator evaluation functions. ">
<polygon fill="white" stroke="black" points="236.5,-112.5 236.5,-131.5 298.5,-131.5 298.5,-112.5 236.5,-112.5"/>
<text text-anchor="middle" x="267.5" y="-119.5" font-family="Helvetica,sans-Serif" font-size="10.00">validator.c</text>
</a>
</g>
</g>
<!-- Node2&#45;&gt;Node10 -->
<g id="edge11" class="edge"><title>Node2&#45;&gt;Node10</title>
<path fill="none" stroke="midnightblue" d="M237.235,-160.144C244.901,-150.736 254.133,-139.405 260.369,-131.751"/>
<polygon fill="midnightblue" stroke="midnightblue" points="234.369,-158.12 230.766,-168.083 239.796,-162.541 234.369,-158.12"/>
</g>
<!-- Node4 -->
<g id="node4" class="node"><title>Node4</title>
<g id="a_node4"><a xlink:href="finder_8c.html" target="_top" xlink:title="The finder retrives the list of files matching an expression. ">
<polygon fill="white" stroke="black" points="0,-56.5 0,-75.5 49,-75.5 49,-56.5 0,-56.5"/>
<text text-anchor="middle" x="24.5" y="-63.5" font-family="Helvetica,sans-Serif" font-size="10.00">finder.c</text>
</a>
</g>
</g>
<!-- Node3&#45;&gt;Node4 -->
<g id="edge3" class="edge"><title>Node3&#45;&gt;Node4</title>
<path fill="none" stroke="midnightblue" d="M74.4621,-106.101C62.0442,-96.3824 46.2566,-84.0269 35.7878,-75.8339"/>
<polygon fill="midnightblue" stroke="midnightblue" points="72.3818,-108.917 82.414,-112.324 76.696,-103.405 72.3818,-108.917"/>
</g>
<!-- Node5 -->
<g id="node5" class="node"><title>Node5</title>
<g id="a_node5"><a xlink:href="linker_8h.html" target="_top" xlink:title="The linker maintains an updated list of links to the found files. ">
<polygon fill="white" stroke="black" points="67.5,-56.5 67.5,-75.5 115.5,-75.5 115.5,-56.5 67.5,-56.5"/>
<text text-anchor="middle" x="91.5" y="-63.5" font-family="Helvetica,sans-Serif" font-size="10.00">linker.h</text>
</a>
</g>
</g>
<!-- Node3&#45;&gt;Node5 -->
<g id="edge4" class="edge"><title>Node3&#45;&gt;Node5</title>
<path fill="none" stroke="midnightblue" d="M92.7891,-101.805C92.4596,-92.9102 92.0844,-82.7798 91.8241,-75.7511"/>
<polygon fill="midnightblue" stroke="midnightblue" points="89.3019,-102.219 93.1697,-112.083 96.2971,-101.96 89.3019,-102.219"/>
</g>
<!-- Node7 -->
<g id="node7" class="node"><title>Node7</title>
<g id="a_node7"><a xlink:href="searchfolder_8c_source.html" target="_top" xlink:title="searchfolder.c">
<polygon fill="white" stroke="black" points="119.5,-0.5 119.5,-19.5 197.5,-19.5 197.5,-0.5 119.5,-0.5"/>
<text text-anchor="middle" x="158.5" y="-7.5" font-family="Helvetica,sans-Serif" font-size="10.00">searchfolder.c</text>
</a>
</g>
</g>
<!-- Node3&#45;&gt;Node7 -->
<g id="edge7" class="edge"><title>Node3&#45;&gt;Node7</title>
<path fill="none" stroke="midnightblue" d="M105.849,-104.12C111.741,-95.8092 118.744,-85.5461 124.5,-76 136.337,-56.3688 148.337,-32.209 154.419,-19.5943"/>
<polygon fill="midnightblue" stroke="midnightblue" points="103.002,-102.084 100.002,-112.246 108.684,-106.173 103.002,-102.084"/>
</g>
<!-- Node6 -->
<g id="node6" class="node"><title>Node6</title>
<g id="a_node6"><a xlink:href="linker_8c.html" target="_top" xlink:title="The linker maintains an updated list of links to the found files. ">
<polygon fill="white" stroke="black" points="53.5,-0.5 53.5,-19.5 101.5,-19.5 101.5,-0.5 53.5,-0.5"/>
<text text-anchor="middle" x="77.5" y="-7.5" font-family="Helvetica,sans-Serif" font-size="10.00">linker.c</text>
</a>
</g>
</g>
<!-- Node5&#45;&gt;Node6 -->
<g id="edge5" class="edge"><title>Node5&#45;&gt;Node6</title>
<path fill="none" stroke="midnightblue" d="M86.6766,-46.3956C84.3346,-37.362 81.6316,-26.936 79.7688,-19.7511"/>
<polygon fill="midnightblue" stroke="midnightblue" points="83.2905,-47.2814 89.1882,-56.083 90.0665,-45.5246 83.2905,-47.2814"/>
</g>
<!-- Node5&#45;&gt;Node7 -->
<g id="edge6" class="edge"><title>Node5&#45;&gt;Node7</title>
<path fill="none" stroke="midnightblue" d="M110.335,-49.8197C122.338,-40.1452 137.472,-27.9481 147.539,-19.8339"/>
<polygon fill="midnightblue" stroke="midnightblue" points="107.854,-47.3236 102.265,-56.324 112.247,-52.7738 107.854,-47.3236"/>
</g>
<!-- Node8&#45;&gt;Node7 -->
<g id="edge10" class="edge"><title>Node8&#45;&gt;Node7</title>
<path fill="none" stroke="midnightblue" d="M175.939,-102.348C171.339,-78.2538 163.522,-37.3079 160.14,-19.5914"/>
<polygon fill="midnightblue" stroke="midnightblue" points="172.539,-103.202 177.852,-112.368 179.415,-101.89 172.539,-103.202"/>
</g>
<!-- Node8&#45;&gt;Node9 -->
<g id="edge9" class="edge"><title>Node8&#45;&gt;Node9</title>
<path fill="none" stroke="midnightblue" d="M204.337,-107.453C222.614,-97.4835 246.916,-84.2279 262.633,-75.6545"/>
<polygon fill="midnightblue" stroke="midnightblue" points="202.509,-104.463 195.406,-112.324 205.861,-110.608 202.509,-104.463"/>
</g>
</g>
</svg>
