<?xml version="1.0" encoding="UTF-8" standalone="no"?>
<!DOCTYPE svg PUBLIC "-//W3C//DTD SVG 1.1//EN"
 "http://www.w3.org/Graphics/SVG/1.1/DTD/svg11.dtd">
<!-- Generated by graphviz version 2.38.0 (20140413.2041)
 -->
<!-- Title: parser.c Pages: 1 -->
<svg width="418pt" height="140pt"
 viewBox="0.00 0.00 418.00 140.00" xmlns="http://www.w3.org/2000/svg" xmlns:xlink="http://www.w3.org/1999/xlink">
<g id="graph0" class="graph" transform="scale(1 1) rotate(0) translate(4 136)">
<title>parser.c</title>
<polygon fill="white" stroke="none" points="-4,4 -4,-136 414,-136 414,4 -4,4"/>
<!-- Node1 -->
<g id="node1" class="node"><title>Node1</title>
<polygon fill="#bfbfbf" stroke="black" points="166.5,-112.5 166.5,-131.5 218.5,-131.5 218.5,-112.5 166.5,-112.5"/>
<text text-anchor="middle" x="192.5" y="-119.5" font-family="Helvetica,sans-Serif" font-size="10.00">parser.c</text>
</g>
<!-- Node2 -->
<g id="node2" class="node"><title>Node2</title>
<polygon fill="white" stroke="#bfbfbf" points="0,-56.5 0,-75.5 49,-75.5 49,-56.5 0,-56.5"/>
<text text-anchor="middle" x="24.5" y="-63.5" font-family="Helvetica,sans-Serif" font-size="10.00">string.h</text>
</g>
<!-- Node1&#45;&gt;Node2 -->
<g id="edge1" class="edge"><title>Node1&#45;&gt;Node2</title>
<path fill="none" stroke="midnightblue" d="M166.25,-112.562C137.354,-103.275 90.7874,-88.3067 58.9698,-78.0796"/>
<polygon fill="midnightblue" stroke="midnightblue" points="59.7901,-74.6669 49.1987,-74.9389 57.6479,-81.3311 59.7901,-74.6669"/>
</g>
<!-- Node3 -->
<g id="node3" class="node"><title>Node3</title>
<polygon fill="white" stroke="#bfbfbf" points="171.5,-0.5 171.5,-19.5 219.5,-19.5 219.5,-0.5 171.5,-0.5"/>
<text text-anchor="middle" x="195.5" y="-7.5" font-family="Helvetica,sans-Serif" font-size="10.00">stdlib.h</text>
</g>
<!-- Node1&#45;&gt;Node3 -->
<g id="edge2" class="edge"><title>Node1&#45;&gt;Node3</title>
<path fill="none" stroke="midnightblue" d="M166.376,-115.117C131.701,-106.001 76.9947,-86.2918 96.5,-56 110.682,-33.9754 138.573,-22.6061 161.146,-16.8118"/>
<polygon fill="midnightblue" stroke="midnightblue" points="162.117,-20.18 171.075,-14.5236 160.545,-13.3587 162.117,-20.18"/>
</g>
<!-- Node4 -->
<g id="node4" class="node"><title>Node4</title>
<polygon fill="white" stroke="#bfbfbf" points="106,-56.5 106,-75.5 153,-75.5 153,-56.5 106,-56.5"/>
<text text-anchor="middle" x="129.5" y="-63.5" font-family="Helvetica,sans-Serif" font-size="10.00">math.h</text>
</g>
<!-- Node1&#45;&gt;Node4 -->
<g id="edge3" class="edge"><title>Node1&#45;&gt;Node4</title>
<path fill="none" stroke="midnightblue" d="M182.378,-112.324C172.974,-104.263 158.756,-92.0765 147.431,-82.3695"/>
<polygon fill="midnightblue" stroke="midnightblue" points="149.677,-79.6844 139.806,-75.8339 145.121,-84.9993 149.677,-79.6844"/>
</g>
<!-- Node5 -->
<g id="node5" class="node"><title>Node5</title>
<polygon fill="white" stroke="#bfbfbf" points="171,-56.5 171,-75.5 214,-75.5 214,-56.5 171,-56.5"/>
<text text-anchor="middle" x="192.5" y="-63.5" font-family="Helvetica,sans-Serif" font-size="10.00">pwd.h</text>
</g>
<!-- Node1&#45;&gt;Node5 -->
<g id="edge4" class="edge"><title>Node1&#45;&gt;Node5</title>
<path fill="none" stroke="midnightblue" d="M192.5,-112.083C192.5,-105.006 192.5,-94.8611 192.5,-85.9865"/>
<polygon fill="midnightblue" stroke="midnightblue" points="196,-85.751 192.5,-75.7511 189,-85.7511 196,-85.751"/>
</g>
<!-- Node6 -->
<g id="node6" class="node"><title>Node6</title>
<polygon fill="white" stroke="#bfbfbf" points="232.5,-56.5 232.5,-75.5 270.5,-75.5 270.5,-56.5 232.5,-56.5"/>
<text text-anchor="middle" x="251.5" y="-63.5" font-family="Helvetica,sans-Serif" font-size="10.00">grp.h</text>
</g>
<!-- Node1&#45;&gt;Node6 -->
<g id="edge5" class="edge"><title>Node1&#45;&gt;Node6</title>
<path fill="none" stroke="midnightblue" d="M201.979,-112.324C210.701,-104.341 223.843,-92.3128 234.398,-82.6529"/>
<polygon fill="midnightblue" stroke="midnightblue" points="236.834,-85.1674 241.848,-75.8339 232.108,-80.0036 236.834,-85.1674"/>
</g>
<!-- Node7 -->
<g id="node7" class="node"><title>Node7</title>
<g id="a_node7"><a xlink:href="parser_8h.html" target="_top" xlink:title="Parses a string expression and return a formal representation. ">
<polygon fill="white" stroke="black" points="288.5,-56.5 288.5,-75.5 340.5,-75.5 340.5,-56.5 288.5,-56.5"/>
<text text-anchor="middle" x="314.5" y="-63.5" font-family="Helvetica,sans-Serif" font-size="10.00">parser.h</text>
</a>
</g>
</g>
<!-- Node1&#45;&gt;Node7 -->
<g id="edge6" class="edge"><title>Node1&#45;&gt;Node7</title>
<path fill="none" stroke="midnightblue" d="M211.831,-112.444C231.82,-103.596 263.243,-89.6875 286.064,-79.5865"/>
<polygon fill="midnightblue" stroke="midnightblue" points="287.532,-82.7645 295.259,-75.5164 284.698,-76.3635 287.532,-82.7645"/>
</g>
<!-- Node8 -->
<g id="node8" class="node"><title>Node8</title>
<g id="a_node8"><a xlink:href="logger_8h.html" target="_top" xlink:title="Simple logger functions that allow logging of various informations and errors. ">
<polygon fill="white" stroke="black" points="359,-56.5 359,-75.5 410,-75.5 410,-56.5 359,-56.5"/>
<text text-anchor="middle" x="384.5" y="-63.5" font-family="Helvetica,sans-Serif" font-size="10.00">logger.h</text>
</a>
</g>
</g>
<!-- Node1&#45;&gt;Node8 -->
<g id="edge8" class="edge"><title>Node1&#45;&gt;Node8</title>
<path fill="none" stroke="midnightblue" d="M218.794,-113.605C252.496,-104.126 311.065,-87.6535 348.782,-77.0456"/>
<polygon fill="midnightblue" stroke="midnightblue" points="350.15,-80.2967 358.829,-74.2199 348.255,-73.5581 350.15,-80.2967"/>
</g>
<!-- Node7&#45;&gt;Node3 -->
<g id="edge7" class="edge"><title>Node7&#45;&gt;Node3</title>
<path fill="none" stroke="midnightblue" d="M295.644,-56.4435C276.234,-47.6356 245.77,-33.8116 223.535,-23.722"/>
<polygon fill="midnightblue" stroke="midnightblue" points="224.82,-20.4615 214.268,-19.5164 221.928,-26.836 224.82,-20.4615"/>
</g>
</g>
</svg>
