<?xml version="1.0" encoding="UTF-8" standalone="no"?>
<!DOCTYPE svg PUBLIC "-//W3C//DTD SVG 1.1//EN"
 "http://www.w3.org/Graphics/SVG/1.1/DTD/svg11.dtd">
<!-- Generated by graphviz version 2.38.0 (20140413.2041)
 -->
<!-- Title: searchfolder_t Pages: 1 -->
<svg width="120pt" height="215pt"
 viewBox="0.00 0.00 119.50 215.00" xmlns="http://www.w3.org/2000/svg" xmlns:xlink="http://www.w3.org/1999/xlink">
<g id="graph0" class="graph" transform="scale(1 1) rotate(0) translate(4 211)">
<title>searchfolder_t</title>
<polygon fill="white" stroke="none" points="-4,4 -4,-211 115.5,-211 115.5,4 -4,4"/>
<!-- Node1 -->
<g id="node1" class="node"><title>Node1</title>
<polygon fill="#bfbfbf" stroke="black" points="-7.10543e-15,-0.5 -7.10543e-15,-79.5 79,-79.5 79,-0.5 -7.10543e-15,-0.5"/>
<text text-anchor="middle" x="39.5" y="-67.5" font-family="Helvetica,sans-Serif" font-size="10.00">searchfolder_t</text>
<polyline fill="none" stroke="black" points="-7.10543e-15,-60.5 79,-60.5 "/>
<text text-anchor="start" x="8" y="-48.5" font-family="Helvetica,sans-Serif" font-size="10.00">+ running</text>
<text text-anchor="start" x="8" y="-37.5" font-family="Helvetica,sans-Serif" font-size="10.00">+ dst_path</text>
<text text-anchor="start" x="8" y="-26.5" font-family="Helvetica,sans-Serif" font-size="10.00">+ search_path</text>
<polyline fill="none" stroke="black" points="-7.10543e-15,-19.5 79,-19.5 "/>
<text text-anchor="middle" x="39.5" y="-7.5" font-family="Helvetica,sans-Serif" font-size="10.00"> </text>
</g>
<!-- Node2 -->
<g id="node2" class="node"><title>Node2</title>
<g id="a_node2"><a xlink:href="structparser__t.html" target="_top" xlink:title="Formal expression representation. ">
<polygon fill="white" stroke="black" points="13.5,-127.5 13.5,-206.5 65.5,-206.5 65.5,-127.5 13.5,-127.5"/>
<text text-anchor="middle" x="39.5" y="-194.5" font-family="Helvetica,sans-Serif" font-size="10.00">parser_t</text>
<polyline fill="none" stroke="black" points="13.5,-187.5 65.5,-187.5 "/>
<text text-anchor="start" x="21.5" y="-175.5" font-family="Helvetica,sans-Serif" font-size="10.00">+ crit</text>
<text text-anchor="start" x="21.5" y="-164.5" font-family="Helvetica,sans-Serif" font-size="10.00">+ value</text>
<text text-anchor="start" x="21.5" y="-153.5" font-family="Helvetica,sans-Serif" font-size="10.00">+ comp</text>
<polyline fill="none" stroke="black" points="13.5,-146.5 65.5,-146.5 "/>
<text text-anchor="middle" x="39.5" y="-134.5" font-family="Helvetica,sans-Serif" font-size="10.00"> </text>
</a>
</g>
</g>
<!-- Node2&#45;&gt;Node1 -->
<g id="edge1" class="edge"><title>Node2&#45;&gt;Node1</title>
<path fill="none" stroke="#404040" d="M39.5,-127.476C39.5,-116.189 39.5,-103.672 39.5,-91.7479"/>
<polygon fill="none" stroke="#404040" points="39.5001,-91.6121 35.5,-85.6121 39.5,-79.6121 43.5,-85.612 39.5001,-91.6121"/>
<text text-anchor="middle" x="68" y="-101" font-family="Helvetica,sans-Serif" font-size="10.00"> +expression</text>
</g>
<!-- Node2&#45;&gt;Node2 -->
<g id="edge2" class="edge"><title>Node2&#45;&gt;Node2</title>
<path fill="none" stroke="#404040" d="M65.6994,-178.599C75.4631,-178.98 83.5,-175.113 83.5,-167 83.5,-162.69 81.2318,-159.578 77.6414,-157.665"/>
<polygon fill="none" stroke="#404040" points="77.4893,-157.636 70.8491,-160.448 65.6994,-155.401 72.3396,-152.588 77.4893,-157.636"/>
<text text-anchor="middle" x="97.5" y="-164.5" font-family="Helvetica,sans-Serif" font-size="10.00"> +next</text>
</g>
</g>
</svg>
