<?xml version="1.0" encoding="UTF-8" standalone="no"?>
<!DOCTYPE svg PUBLIC "-//W3C//DTD SVG 1.1//EN"
 "http://www.w3.org/Graphics/SVG/1.1/DTD/svg11.dtd">
<!-- Generated by graphviz version 2.38.0 (20140413.2041)
 -->
<!-- Title: finder_t Pages: 1 -->
<svg width="116pt" height="66pt"
 viewBox="0.00 0.00 116.00 66.00" xmlns="http://www.w3.org/2000/svg" xmlns:xlink="http://www.w3.org/1999/xlink">
<g id="graph0" class="graph" transform="scale(1 1) rotate(0) translate(4 62)">
<title>finder_t</title>
<polygon fill="white" stroke="none" points="-4,4 -4,-62 112,-62 112,4 -4,4"/>
<!-- Node1 -->
<g id="node1" class="node"><title>Node1</title>
<polygon fill="#bfbfbf" stroke="black" points="-3.55271e-15,-0.5 -3.55271e-15,-57.5 62,-57.5 62,-0.5 -3.55271e-15,-0.5"/>
<text text-anchor="middle" x="31" y="-45.5" font-family="Helvetica,sans-Serif" font-size="10.00">finder_t</text>
<polyline fill="none" stroke="black" points="-3.55271e-15,-38.5 62,-38.5 "/>
<text text-anchor="start" x="8" y="-26.5" font-family="Helvetica,sans-Serif" font-size="10.00">+ filename</text>
<polyline fill="none" stroke="black" points="-3.55271e-15,-19.5 62,-19.5 "/>
<text text-anchor="middle" x="31" y="-7.5" font-family="Helvetica,sans-Serif" font-size="10.00"> </text>
</g>
<!-- Node1&#45;&gt;Node1 -->
<g id="edge1" class="edge"><title>Node1&#45;&gt;Node1</title>
<path fill="none" stroke="#404040" d="M62.102,-39.4974C72.0865,-39.3898 80,-35.8906 80,-29 80,-25.3394 77.7666,-22.6359 74.1758,-20.8896"/>
<polygon fill="none" stroke="#404040" points="73.8741,-20.83 67.2123,-23.5903 62.102,-18.5026 68.7639,-15.7422 73.8741,-20.83"/>
<text text-anchor="middle" x="94" y="-26.5" font-family="Helvetica,sans-Serif" font-size="10.00"> +next</text>
</g>
</g>
</svg>
