<?xml version="1.0" encoding="UTF-8" standalone="no"?>
<!DOCTYPE svg PUBLIC "-//W3C//DTD SVG 1.1//EN"
 "http://www.w3.org/Graphics/SVG/1.1/DTD/svg11.dtd">
<!-- Generated by graphviz version 2.38.0 (20140413.2041)
 -->
<!-- Title: validator.h Pages: 1 -->
<svg width="309pt" height="196pt"
 viewBox="0.00 0.00 308.50 196.00" xmlns="http://www.w3.org/2000/svg" xmlns:xlink="http://www.w3.org/1999/xlink">
<g id="graph0" class="graph" transform="scale(1 1) rotate(0) translate(4 192)">
<title>validator.h</title>
<polygon fill="white" stroke="none" points="-4,4 -4,-192 304.5,-192 304.5,4 -4,4"/>
<!-- Node1 -->
<g id="node1" class="node"><title>Node1</title>
<polygon fill="#bfbfbf" stroke="black" points="150.5,-168.5 150.5,-187.5 212.5,-187.5 212.5,-168.5 150.5,-168.5"/>
<text text-anchor="middle" x="181.5" y="-175.5" font-family="Helvetica,sans-Serif" font-size="10.00">validator.h</text>
</g>
<!-- Node2 -->
<g id="node2" class="node"><title>Node2</title>
<g id="a_node2"><a xlink:href="finder_8h.html" target="_top" xlink:title="The finder retrives the list of files matching an expression. ">
<polygon fill="white" stroke="black" points="71,-112.5 71,-131.5 120,-131.5 120,-112.5 71,-112.5"/>
<text text-anchor="middle" x="95.5" y="-119.5" font-family="Helvetica,sans-Serif" font-size="10.00">finder.h</text>
</a>
</g>
</g>
<!-- Node1&#45;&gt;Node2 -->
<g id="edge1" class="edge"><title>Node1&#45;&gt;Node2</title>
<path fill="none" stroke="midnightblue" d="M159.045,-162.901C143.276,-152.999 122.686,-140.071 109.283,-131.655"/>
<polygon fill="midnightblue" stroke="midnightblue" points="157.352,-165.97 167.683,-168.324 161.075,-160.042 157.352,-165.97"/>
</g>
<!-- Node7 -->
<g id="node7" class="node"><title>Node7</title>
<g id="a_node7"><a xlink:href="searchfolder_8h_source.html" target="_top" xlink:title="searchfolder.h">
<polygon fill="white" stroke="black" points="142.5,-112.5 142.5,-131.5 220.5,-131.5 220.5,-112.5 142.5,-112.5"/>
<text text-anchor="middle" x="181.5" y="-119.5" font-family="Helvetica,sans-Serif" font-size="10.00">searchfolder.h</text>
</a>
</g>
</g>
<!-- Node1&#45;&gt;Node7 -->
<g id="edge7" class="edge"><title>Node1&#45;&gt;Node7</title>
<path fill="none" stroke="midnightblue" d="M181.5,-157.805C181.5,-148.91 181.5,-138.78 181.5,-131.751"/>
<polygon fill="midnightblue" stroke="midnightblue" points="178,-158.083 181.5,-168.083 185,-158.083 178,-158.083"/>
</g>
<!-- Node9 -->
<g id="node9" class="node"><title>Node9</title>
<g id="a_node9"><a xlink:href="validator_8c.html" target="_top" xlink:title="Critera and operator evaluation functions. ">
<polygon fill="white" stroke="black" points="238.5,-112.5 238.5,-131.5 300.5,-131.5 300.5,-112.5 238.5,-112.5"/>
<text text-anchor="middle" x="269.5" y="-119.5" font-family="Helvetica,sans-Serif" font-size="10.00">validator.c</text>
</a>
</g>
</g>
<!-- Node1&#45;&gt;Node9 -->
<g id="edge10" class="edge"><title>Node1&#45;&gt;Node9</title>
<path fill="none" stroke="midnightblue" d="M204.477,-162.901C220.613,-152.999 241.681,-140.071 255.396,-131.655"/>
<polygon fill="midnightblue" stroke="midnightblue" points="202.331,-160.111 195.639,-168.324 205.993,-166.077 202.331,-160.111"/>
</g>
<!-- Node3 -->
<g id="node3" class="node"><title>Node3</title>
<g id="a_node3"><a xlink:href="finder_8c.html" target="_top" xlink:title="The finder retrives the list of files matching an expression. ">
<polygon fill="white" stroke="black" points="0,-56.5 0,-75.5 49,-75.5 49,-56.5 0,-56.5"/>
<text text-anchor="middle" x="24.5" y="-63.5" font-family="Helvetica,sans-Serif" font-size="10.00">finder.c</text>
</a>
</g>
</g>
<!-- Node2&#45;&gt;Node3 -->
<g id="edge2" class="edge"><title>Node2&#45;&gt;Node3</title>
<path fill="none" stroke="midnightblue" d="M75.9103,-106.101C63.1324,-96.3824 46.8873,-84.0269 36.1149,-75.8339"/>
<polygon fill="midnightblue" stroke="midnightblue" points="74.0143,-109.056 84.0926,-112.324 78.2519,-103.484 74.0143,-109.056"/>
</g>
<!-- Node4 -->
<g id="node4" class="node"><title>Node4</title>
<g id="a_node4"><a xlink:href="linker_8h.html" target="_top" xlink:title="The linker maintains an updated list of links to the found files. ">
<polygon fill="white" stroke="black" points="67.5,-56.5 67.5,-75.5 115.5,-75.5 115.5,-56.5 67.5,-56.5"/>
<text text-anchor="middle" x="91.5" y="-63.5" font-family="Helvetica,sans-Serif" font-size="10.00">linker.h</text>
</a>
</g>
</g>
<!-- Node2&#45;&gt;Node4 -->
<g id="edge3" class="edge"><title>Node2&#45;&gt;Node4</title>
<path fill="none" stroke="midnightblue" d="M94.1,-102.101C93.436,-93.1357 92.6747,-82.8579 92.1482,-75.7511"/>
<polygon fill="midnightblue" stroke="midnightblue" points="90.6102,-102.369 94.8395,-112.083 97.5911,-101.852 90.6102,-102.369"/>
</g>
<!-- Node6 -->
<g id="node6" class="node"><title>Node6</title>
<g id="a_node6"><a xlink:href="searchfolder_8c_source.html" target="_top" xlink:title="searchfolder.c">
<polygon fill="white" stroke="black" points="119.5,-0.5 119.5,-19.5 197.5,-19.5 197.5,-0.5 119.5,-0.5"/>
<text text-anchor="middle" x="158.5" y="-7.5" font-family="Helvetica,sans-Serif" font-size="10.00">searchfolder.c</text>
</a>
</g>
</g>
<!-- Node2&#45;&gt;Node6 -->
<g id="edge6" class="edge"><title>Node2&#45;&gt;Node6</title>
<path fill="none" stroke="midnightblue" d="M107.131,-103.758C112.585,-95.4741 119.064,-85.3375 124.5,-76 136.033,-56.189 148.157,-32.1022 154.339,-19.5467"/>
<polygon fill="midnightblue" stroke="midnightblue" points="104.15,-101.92 101.519,-112.184 109.976,-105.801 104.15,-101.92"/>
</g>
<!-- Node5 -->
<g id="node5" class="node"><title>Node5</title>
<g id="a_node5"><a xlink:href="linker_8c.html" target="_top" xlink:title="The linker maintains an updated list of links to the found files. ">
<polygon fill="white" stroke="black" points="53.5,-0.5 53.5,-19.5 101.5,-19.5 101.5,-0.5 53.5,-0.5"/>
<text text-anchor="middle" x="77.5" y="-7.5" font-family="Helvetica,sans-Serif" font-size="10.00">linker.c</text>
</a>
</g>
</g>
<!-- Node4&#45;&gt;Node5 -->
<g id="edge4" class="edge"><title>Node4&#45;&gt;Node5</title>
<path fill="none" stroke="midnightblue" d="M86.6766,-46.3956C84.3346,-37.362 81.6316,-26.936 79.7688,-19.7511"/>
<polygon fill="midnightblue" stroke="midnightblue" points="83.2905,-47.2814 89.1882,-56.083 90.0665,-45.5246 83.2905,-47.2814"/>
</g>
<!-- Node4&#45;&gt;Node6 -->
<g id="edge5" class="edge"><title>Node4&#45;&gt;Node6</title>
<path fill="none" stroke="midnightblue" d="M110.335,-49.8197C122.338,-40.1452 137.472,-27.9481 147.539,-19.8339"/>
<polygon fill="midnightblue" stroke="midnightblue" points="107.854,-47.3236 102.265,-56.324 112.247,-52.7738 107.854,-47.3236"/>
</g>
<!-- Node7&#45;&gt;Node6 -->
<g id="edge9" class="edge"><title>Node7&#45;&gt;Node6</title>
<path fill="none" stroke="midnightblue" d="M177.6,-102.348C172.562,-78.2538 164.001,-37.3079 160.296,-19.5914"/>
<polygon fill="midnightblue" stroke="midnightblue" points="174.223,-103.297 179.695,-112.368 181.074,-101.864 174.223,-103.297"/>
</g>
<!-- Node8 -->
<g id="node8" class="node"><title>Node8</title>
<g id="a_node8"><a xlink:href="main_8c.html" target="_top" xlink:title="Main program: deamonise, parse argument and launch the search. ">
<polygon fill="white" stroke="black" points="209.5,-56.5 209.5,-75.5 255.5,-75.5 255.5,-56.5 209.5,-56.5"/>
<text text-anchor="middle" x="232.5" y="-63.5" font-family="Helvetica,sans-Serif" font-size="10.00">main.c</text>
</a>
</g>
</g>
<!-- Node7&#45;&gt;Node8 -->
<g id="edge8" class="edge"><title>Node7&#45;&gt;Node8</title>
<path fill="none" stroke="midnightblue" d="M196.878,-104.718C205.867,-95.1997 216.859,-83.5608 224.235,-75.7511"/>
<polygon fill="midnightblue" stroke="midnightblue" points="194.243,-102.41 189.922,-112.083 199.332,-107.216 194.243,-102.41"/>
</g>
</g>
</svg>
