<?xml version="1.0" encoding="UTF-8" standalone="no"?>
<!DOCTYPE svg PUBLIC "-//W3C//DTD SVG 1.1//EN"
 "http://www.w3.org/Graphics/SVG/1.1/DTD/svg11.dtd">
<!-- Generated by graphviz version 2.38.0 (20140413.2041)
 -->
<!-- Title: validator.h Pages: 1 -->
<svg width="212pt" height="140pt"
 viewBox="0.00 0.00 212.00 140.00" xmlns="http://www.w3.org/2000/svg" xmlns:xlink="http://www.w3.org/1999/xlink">
<g id="graph0" class="graph" transform="scale(1 1) rotate(0) translate(4 136)">
<title>validator.h</title>
<polygon fill="white" stroke="none" points="-4,4 -4,-136 208,-136 208,4 -4,4"/>
<!-- Node1 -->
<g id="node1" class="node"><title>Node1</title>
<polygon fill="#bfbfbf" stroke="black" points="73,-112.5 73,-131.5 135,-131.5 135,-112.5 73,-112.5"/>
<text text-anchor="middle" x="104" y="-119.5" font-family="Helvetica,sans-Serif" font-size="10.00">validator.h</text>
</g>
<!-- Node2 -->
<g id="node2" class="node"><title>Node2</title>
<polygon fill="white" stroke="#bfbfbf" points="-3.55271e-15,-56.5 -3.55271e-15,-75.5 56,-75.5 56,-56.5 -3.55271e-15,-56.5"/>
<text text-anchor="middle" x="28" y="-63.5" font-family="Helvetica,sans-Serif" font-size="10.00">stdbool.h</text>
</g>
<!-- Node1&#45;&gt;Node2 -->
<g id="edge1" class="edge"><title>Node1&#45;&gt;Node2</title>
<path fill="none" stroke="midnightblue" d="M91.7893,-112.324C80.2241,-104.107 62.6246,-91.6017 48.8393,-81.8069"/>
<polygon fill="midnightblue" stroke="midnightblue" points="50.612,-78.7729 40.4329,-75.8339 46.5575,-84.4791 50.612,-78.7729"/>
</g>
<!-- Node3 -->
<g id="node3" class="node"><title>Node3</title>
<polygon fill="white" stroke="#bfbfbf" points="74,-56.5 74,-75.5 134,-75.5 134,-56.5 74,-56.5"/>
<text text-anchor="middle" x="104" y="-63.5" font-family="Helvetica,sans-Serif" font-size="10.00">sys/stat.h</text>
</g>
<!-- Node1&#45;&gt;Node3 -->
<g id="edge2" class="edge"><title>Node1&#45;&gt;Node3</title>
<path fill="none" stroke="midnightblue" d="M104,-112.083C104,-105.006 104,-94.8611 104,-85.9865"/>
<polygon fill="midnightblue" stroke="midnightblue" points="107.5,-85.751 104,-75.7511 100.5,-85.7511 107.5,-85.751"/>
</g>
<!-- Node4 -->
<g id="node4" class="node"><title>Node4</title>
<g id="a_node4"><a xlink:href="parser_8h.html" target="_top" xlink:title="Parses a string expression and return a formal representation. ">
<polygon fill="white" stroke="black" points="152,-56.5 152,-75.5 204,-75.5 204,-56.5 152,-56.5"/>
<text text-anchor="middle" x="178" y="-63.5" font-family="Helvetica,sans-Serif" font-size="10.00">parser.h</text>
</a>
</g>
</g>
<!-- Node1&#45;&gt;Node4 -->
<g id="edge3" class="edge"><title>Node1&#45;&gt;Node4</title>
<path fill="none" stroke="midnightblue" d="M115.889,-112.324C127.15,-104.107 144.287,-91.6017 157.709,-81.8069"/>
<polygon fill="midnightblue" stroke="midnightblue" points="159.88,-84.5559 165.894,-75.8339 155.753,-78.9014 159.88,-84.5559"/>
</g>
<!-- Node5 -->
<g id="node5" class="node"><title>Node5</title>
<polygon fill="white" stroke="#bfbfbf" points="154,-0.5 154,-19.5 202,-19.5 202,-0.5 154,-0.5"/>
<text text-anchor="middle" x="178" y="-7.5" font-family="Helvetica,sans-Serif" font-size="10.00">stdlib.h</text>
</g>
<!-- Node4&#45;&gt;Node5 -->
<g id="edge4" class="edge"><title>Node4&#45;&gt;Node5</title>
<path fill="none" stroke="midnightblue" d="M178,-56.083C178,-49.0059 178,-38.8611 178,-29.9865"/>
<polygon fill="midnightblue" stroke="midnightblue" points="181.5,-29.751 178,-19.7511 174.5,-29.7511 181.5,-29.751"/>
</g>
</g>
</svg>
