<?xml version="1.0" encoding="UTF-8" standalone="no"?>
<!DOCTYPE svg PUBLIC "-//W3C//DTD SVG 1.1//EN"
 "http://www.w3.org/Graphics/SVG/1.1/DTD/svg11.dtd">
<!-- Generated by graphviz version 2.38.0 (20140413.2041)
 -->
<!-- Title: validator.c Pages: 1 -->
<svg width="355pt" height="196pt"
 viewBox="0.00 0.00 355.00 196.00" xmlns="http://www.w3.org/2000/svg" xmlns:xlink="http://www.w3.org/1999/xlink">
<g id="graph0" class="graph" transform="scale(1 1) rotate(0) translate(4 192)">
<title>validator.c</title>
<polygon fill="white" stroke="none" points="-4,4 -4,-192 351,-192 351,4 -4,4"/>
<!-- Node1 -->
<g id="node1" class="node"><title>Node1</title>
<polygon fill="#bfbfbf" stroke="black" points="132.5,-168.5 132.5,-187.5 194.5,-187.5 194.5,-168.5 132.5,-168.5"/>
<text text-anchor="middle" x="163.5" y="-175.5" font-family="Helvetica,sans-Serif" font-size="10.00">validator.c</text>
</g>
<!-- Node2 -->
<g id="node2" class="node"><title>Node2</title>
<polygon fill="white" stroke="#bfbfbf" points="0,-112.5 0,-131.5 49,-131.5 49,-112.5 0,-112.5"/>
<text text-anchor="middle" x="24.5" y="-119.5" font-family="Helvetica,sans-Serif" font-size="10.00">string.h</text>
</g>
<!-- Node1&#45;&gt;Node2 -->
<g id="edge1" class="edge"><title>Node1&#45;&gt;Node2</title>
<path fill="none" stroke="midnightblue" d="M141.475,-168.444C118.396,-159.478 81.938,-145.314 55.8591,-135.183"/>
<polygon fill="midnightblue" stroke="midnightblue" points="57.0107,-131.875 46.4219,-131.516 54.4758,-138.4 57.0107,-131.875"/>
</g>
<!-- Node3 -->
<g id="node3" class="node"><title>Node3</title>
<polygon fill="white" stroke="#bfbfbf" points="67.5,-112.5 67.5,-131.5 111.5,-131.5 111.5,-112.5 67.5,-112.5"/>
<text text-anchor="middle" x="89.5" y="-119.5" font-family="Helvetica,sans-Serif" font-size="10.00">time.h</text>
</g>
<!-- Node1&#45;&gt;Node3 -->
<g id="edge2" class="edge"><title>Node1&#45;&gt;Node3</title>
<path fill="none" stroke="midnightblue" d="M151.611,-168.324C140.35,-160.107 123.213,-147.602 109.791,-137.807"/>
<polygon fill="midnightblue" stroke="midnightblue" points="111.747,-134.901 101.606,-131.834 107.62,-140.556 111.747,-134.901"/>
</g>
<!-- Node4 -->
<g id="node4" class="node"><title>Node4</title>
<polygon fill="white" stroke="#bfbfbf" points="129.5,-112.5 129.5,-131.5 197.5,-131.5 197.5,-112.5 129.5,-112.5"/>
<text text-anchor="middle" x="163.5" y="-119.5" font-family="Helvetica,sans-Serif" font-size="10.00">sys/types.h</text>
</g>
<!-- Node1&#45;&gt;Node4 -->
<g id="edge3" class="edge"><title>Node1&#45;&gt;Node4</title>
<path fill="none" stroke="midnightblue" d="M163.5,-168.083C163.5,-161.006 163.5,-150.861 163.5,-141.986"/>
<polygon fill="midnightblue" stroke="midnightblue" points="167,-141.751 163.5,-131.751 160,-141.751 167,-141.751"/>
</g>
<!-- Node5 -->
<g id="node5" class="node"><title>Node5</title>
<g id="a_node5"><a xlink:href="validator_8h.html" target="_top" xlink:title="Validates files against a parsed criteria expression. ">
<polygon fill="white" stroke="black" points="215.5,-112.5 215.5,-131.5 277.5,-131.5 277.5,-112.5 215.5,-112.5"/>
<text text-anchor="middle" x="246.5" y="-119.5" font-family="Helvetica,sans-Serif" font-size="10.00">validator.h</text>
</a>
</g>
</g>
<!-- Node1&#45;&gt;Node5 -->
<g id="edge4" class="edge"><title>Node1&#45;&gt;Node5</title>
<path fill="none" stroke="midnightblue" d="M176.835,-168.324C189.662,-159.979 209.285,-147.212 224.44,-137.352"/>
<polygon fill="midnightblue" stroke="midnightblue" points="226.724,-140.042 233.198,-131.655 222.907,-134.174 226.724,-140.042"/>
</g>
<!-- Node10 -->
<g id="node10" class="node"><title>Node10</title>
<g id="a_node10"><a xlink:href="logger_8h.html" target="_top" xlink:title="Simple logger functions that allow logging of various informations and errors. ">
<polygon fill="white" stroke="black" points="296,-112.5 296,-131.5 347,-131.5 347,-112.5 296,-112.5"/>
<text text-anchor="middle" x="321.5" y="-119.5" font-family="Helvetica,sans-Serif" font-size="10.00">logger.h</text>
</a>
</g>
</g>
<!-- Node1&#45;&gt;Node10 -->
<g id="edge9" class="edge"><title>Node1&#45;&gt;Node10</title>
<path fill="none" stroke="midnightblue" d="M188.536,-168.444C215.116,-159.359 257.309,-144.939 287.023,-134.783"/>
<polygon fill="midnightblue" stroke="midnightblue" points="288.251,-138.062 296.582,-131.516 285.987,-131.439 288.251,-138.062"/>
</g>
<!-- Node6 -->
<g id="node6" class="node"><title>Node6</title>
<polygon fill="white" stroke="#bfbfbf" points="142.5,-56.5 142.5,-75.5 198.5,-75.5 198.5,-56.5 142.5,-56.5"/>
<text text-anchor="middle" x="170.5" y="-63.5" font-family="Helvetica,sans-Serif" font-size="10.00">stdbool.h</text>
</g>
<!-- Node5&#45;&gt;Node6 -->
<g id="edge5" class="edge"><title>Node5&#45;&gt;Node6</title>
<path fill="none" stroke="midnightblue" d="M234.289,-112.324C222.724,-104.107 205.125,-91.6017 191.339,-81.8069"/>
<polygon fill="midnightblue" stroke="midnightblue" points="193.112,-78.7729 182.933,-75.8339 189.057,-84.4791 193.112,-78.7729"/>
</g>
<!-- Node7 -->
<g id="node7" class="node"><title>Node7</title>
<polygon fill="white" stroke="#bfbfbf" points="216.5,-56.5 216.5,-75.5 276.5,-75.5 276.5,-56.5 216.5,-56.5"/>
<text text-anchor="middle" x="246.5" y="-63.5" font-family="Helvetica,sans-Serif" font-size="10.00">sys/stat.h</text>
</g>
<!-- Node5&#45;&gt;Node7 -->
<g id="edge6" class="edge"><title>Node5&#45;&gt;Node7</title>
<path fill="none" stroke="midnightblue" d="M246.5,-112.083C246.5,-105.006 246.5,-94.8611 246.5,-85.9865"/>
<polygon fill="midnightblue" stroke="midnightblue" points="250,-85.751 246.5,-75.7511 243,-85.7511 250,-85.751"/>
</g>
<!-- Node8 -->
<g id="node8" class="node"><title>Node8</title>
<g id="a_node8"><a xlink:href="parser_8h.html" target="_top" xlink:title="Parses a string expression and return a formal representation. ">
<polygon fill="white" stroke="black" points="294.5,-56.5 294.5,-75.5 346.5,-75.5 346.5,-56.5 294.5,-56.5"/>
<text text-anchor="middle" x="320.5" y="-63.5" font-family="Helvetica,sans-Serif" font-size="10.00">parser.h</text>
</a>
</g>
</g>
<!-- Node5&#45;&gt;Node8 -->
<g id="edge7" class="edge"><title>Node5&#45;&gt;Node8</title>
<path fill="none" stroke="midnightblue" d="M258.389,-112.324C269.65,-104.107 286.787,-91.6017 300.209,-81.8069"/>
<polygon fill="midnightblue" stroke="midnightblue" points="302.38,-84.5559 308.394,-75.8339 298.253,-78.9014 302.38,-84.5559"/>
</g>
<!-- Node9 -->
<g id="node9" class="node"><title>Node9</title>
<polygon fill="white" stroke="#bfbfbf" points="296.5,-0.5 296.5,-19.5 344.5,-19.5 344.5,-0.5 296.5,-0.5"/>
<text text-anchor="middle" x="320.5" y="-7.5" font-family="Helvetica,sans-Serif" font-size="10.00">stdlib.h</text>
</g>
<!-- Node8&#45;&gt;Node9 -->
<g id="edge8" class="edge"><title>Node8&#45;&gt;Node9</title>
<path fill="none" stroke="midnightblue" d="M320.5,-56.083C320.5,-49.0059 320.5,-38.8611 320.5,-29.9865"/>
<polygon fill="midnightblue" stroke="midnightblue" points="324,-29.751 320.5,-19.7511 317,-29.7511 324,-29.751"/>
</g>
</g>
</svg>
